<?xml version="1.0" encoding="utf-8"?>
<!-- Generator: Adobe Illustrator 25.2.1, SVG Export Plug-In . SVG Version: 6.00 Build 0)  -->
<svg version="1.1" id="Layer_1" xmlns="http://www.w3.org/2000/svg" xmlns:xlink="http://www.w3.org/1999/xlink" x="0px" y="0px"
	 viewBox="0 0 169.9 99.3" style="enable-background:new 0 0 169.9 99.3;" xml:space="preserve">
<style type="text/css">
	.st0{fill:none;}
	.st1{fill:url(#SVGID_1_);}
	.st2{fill:url(#SVGID_2_);}
	.st3{fill:url(#SVGID_3_);}
	.st4{fill:url(#SVGID_4_);}
	.st5{fill:url(#SVGID_5_);}
	.st6{fill:url(#SVGID_6_);}
	.st7{fill:url(#SVGID_7_);}
	.st8{fill:url(#SVGID_8_);}
	.st9{fill:url(#SVGID_9_);}
	.st10{fill:url(#SVGID_10_);}
	.st11{fill:#396A33;}
</style>
<pattern  x="-430.2" y="-451.3" width="88.6" height="88.6" patternUnits="userSpaceOnUse" id="pattern" viewBox="0 -88.6 88.6 88.6" style="overflow:visible;">
	<g>
		<rect y="-88.6" class="st0" width="88.6" height="88.6"/>
		
			<image style="overflow:visible;enable-background:new    ;" width="484" height="271" xlink:href="6F8B7E37.jpg"  transform="matrix(0.183 0 0 -0.183 0 -19.4855)">
		</image>
	</g>
</pattern>
<pattern  x="-430.2" y="-451.3" width="94.4" height="94.4" patternUnits="userSpaceOnUse" id="pattern-2" viewBox="0 -94.4 94.4 94.4" style="overflow:visible;">
	<g>
		<rect y="-94.4" class="st0" width="94.4" height="94.4"/>
		
			<image style="overflow:visible;enable-background:new    ;" width="516" height="397" xlink:href="6F8B7E35.jpg"  transform="matrix(0.183 0 0 -0.183 0 -10.886)">
		</image>
	</g>
</pattern>
<image style="overflow:visible;enable-background:new    ;" width="958" height="517" id="Retângulo_3_1_" xlink:href="6F8B7E3B.jpg"  transform="matrix(0.1267 0 0 0.1267 44.4042 7.698)">
</image>
<path class="st0" d="M166.5,6.6H43.8H2v41.9v50.9l2.9,0c-0.1-3.6,0.1-7.1,0.7-10.6c3-18.6,15.4-35.3,36.1-39.7c0,0,0.1,0,0.1,0
	c0.2,0,0.4,0.2,0.5,0.4c0.1,0.3-0.1,0.6-0.4,0.6c-19.6,5-30.9,21.3-33,39.2C8.6,92.6,8.6,96,8.8,99.4l162.1,0.3L8.8,99.4
	c1.1,14,7.7,27.7,20.4,36.4c8.4,5.7,18.5,6,29.1,3.8c24.2-5,51.2-21.3,72.3-20.9c0,0,0.1,0,0.1,0c0.7,2.2,0.9,4.4,0.5,6.7
	c-0.1,1-0.3,2-0.6,3c-0.4,1.3-0.9,2.6-1.5,3.8c-13.5-1.6-30.3,4.4-46.8,9.2c-7.5,2.4-15.1,4.2-22.8,5.5c-12.5,1.8-24.2,0.8-33.7-6.4
	C12.2,130.3,5.4,114.8,5,99.4l-2.9,0v49.8h130.8h44.1V6.6H166.5z M70.4,22.8c1.1-3,2-7.7,7-7.9c-1,4.8-1.7,9.7-2.1,14.7
	c-2.2,1-4.4,2.3-6.5,3.6C69.1,29.7,69.6,26.3,70.4,22.8L70.4,22.8z M78.8,20.5c0.2-0.9,1-3.4,1.3-4.3l0,0c1.8-2.5,4.5-6.5,9.1-6.5
	c0.4,0,0.8,0,1.2,0.1c-3.3,5.5-6,11.4-8.2,17.4c-1.9,0.4-3.8,1-5.6,1.7C77.2,26.3,78,23.5,78.8,20.5z M67,34.5
	c-1.5,1.1-3,2.2-4.3,3.3c0.2-3.7,1.2-8,1.3-10c0.2-3.8-0.4-7.7-1.6-11.3C66.1,17.9,66.6,27.5,67,34.5z M72.3,48.3
	c6.2-0.2,10.4-3.6,9.9-4.5c-0.9-2.5-9.4-2.8-9.4-2.8c0,0,0,0,0,0l0,0c0,0,0,0,0,0c3.3-7.5,9.7-9.7,15.3-8.4c3.8,0.8,10.3,3,10.8,11
	c0.5,8.4-5.5,12.5-11.1,13.6C77.6,59.1,72.3,48.3,72.3,48.3z M155.6,37.6c-0.5,3.5-3.3,7.2-7.5,9.7c-2.4,0.2-3.5,0.3-6,0.5
	c-6.7,0.5-13.8,1-20.3,1c-5.9,0.2-11.8-0.2-17.6-1.2c0.3-1.4,0.4-2.8,0.4-4.2c7.8,0.4,15.6,0.1,23.4-1.1c5.8-0.7,11.8-1.7,17.4-2.7
	l0,0C149,39,152.5,38.3,155.6,37.6z M129.1,50.9c5.8,0.1,12.9-0.6,18.5-0.9c-0.9,3.5-6.4,7.5-11.9,10.1c-1.3,0.6-5.2,0.5-7.3,0.4
	c-9.5-0.6-19-2.1-28.2-4.5h0c1.9-2.3,3.3-4.9,3.9-7.8C110.4,50,119.5,50.8,129.1,50.9z M86.8,65.2c-0.7-0.9-1.3-1.8-1.9-2.7
	c1.2,0.1,2.4,0,3.5-0.1l0,0c1.5-0.2,2.9-0.5,4.3-1.1c2.6,2.2,5.6,4.5,8.7,6.9c0.3,0.3,5.6,4.2,5.9,4.4c-6.8,2-13.5-1.8-17.4-3.3
	C88.9,68,87.9,66.6,86.8,65.2z M88.2,71.7c-3.4-0.9-7-3.6-10.1-5.1l-2.1-2l0,0c-1-1.8-2-3.6-2.8-5.3c3,1.5,6.3,2.5,9.6,3
	C84.5,65.6,86.4,68.8,88.2,71.7z M98.1,63.2c-1.3-0.9-2.5-1.8-3.7-2.6c1.8-0.9,3.4-2.1,4.8-3.5c6,2,12.2,3.4,18.4,4.3
	c4.3,0.7,11.1,2,15.4,2.4c-7,5.7-15.3,5.7-23.6,5.4C106.2,67.2,101,65.2,98.1,63.2z M100.1,32.5c5.3-1.9,11.5-4.3,17.8-6.9
	c5-2.1,10.1-4.3,14.9-6.5l0,0c1.2-0.1,2.4-0.2,3.6-0.2c5.7,0,12.2,1.4,15.8,3.5c-1.3,0.4-5.9,1.8-7.2,2.2c-3.2,1-6.6,2-10.1,3.1
	c-11.3,3.5-23.3,7.1-31.5,9.3C102.6,35.3,101.5,33.8,100.1,32.5z M99.2,31.7c-0.9-0.7-1.8-1.3-2.7-1.9c4.9-3.2,11.2-7.6,17.4-12.2
	c1.9-1.4,3-2.2,4.9-3.6l0,0c0.9-0.1,1.8-0.2,2.7-0.2c1.3,0,2.6,0.1,3.9,0.3c2.5,0.5,4.9,1.2,7.2,2.1c-6.3,3.2-16.6,7.8-22.8,10.7
	C106.1,28.6,102.5,30.3,99.2,31.7z M107.3,11.2c1.7-0.7,3.4-1.1,5.3-1.1c1.6-0.1,3.2,0.4,4.6,1.3l-9.7,8.1c-4.4,3.7-8.6,7.1-12,9.7
	c-1.4-0.7-2.8-1.2-4.3-1.7C95,24,100.8,18,107.3,11.2L107.3,11.2z M71.3,58.3c1.4,5,2.4,10.7,0.3,13.7c-0.7-5.4-2.2-10.6-4.4-15.6
	l0,0c0-0.2,0-0.4-0.1-0.6C68.5,56.7,69.8,57.5,71.3,58.3z M165.8,25.8c0,0.1-1.5,5-8.2,7.8c-0.7,0.2-1.5,0.4-2.3,0.6
	c-4.4,1.1-9.5,2.2-14.9,3.4c-6.6,1.4-13.5,2.9-20,3.9c-5.2,0.9-10.6,1.3-15.9,1.4c0-1.7-0.4-3.4-1-4.9c7.5-1.5,18.1-3.8,28.4-6.4
	c5.2-1.3,10.3-2.6,14.9-3.9c4-1.1,5.8-1.5,9-2.5l0,0c1.3-0.4,2.6-0.6,3.9-0.6c0.2,0,0.3,0,0.5,0C162.2,24.7,164,25.2,165.8,25.8
	C165.8,25.8,165.8,25.8,165.8,25.8C165.8,25.8,165.8,25.8,165.8,25.8z M106.6,8.2c-1.8,2.2-5.3,6.5-7,8.5c-3.7,4.3-7,8.1-9.4,10.5
	c-1.2-0.3-2.4-0.4-3.6-0.5c-1,0-2,0.1-3,0.2c1.7-3.3,3.7-6.5,5.8-9.5c1.2-1.7,2.4-3.5,3.7-5.2l0,0c2.4-2.9,6-4.6,9.9-4.6
	C104.2,7.7,105.4,7.9,106.6,8.2z M55.8,26.1L55.8,26.1c0.1,0,0.1,0,0.2,0c2.5,0,4.1,7.8,3.9,14.2c-2,1.9-3.9,3.9-5.6,6
	c2.4,1.9,5.4,4.4,8.7,6.8c2.1,4.6,3.3,10.9,0.9,15.8C59,47.3,47,51.6,44.4,47.8C44.9,44.5,61.8,45.2,55.8,26.1z M152.6,130.2
	c-0.4-0.1-0.7-0.3-1-0.7h-0.1v-0.1c-6.1-1-12.4-0.6-18.3,1.1c0.3-0.9,0.6-1.9,0.8-2.9c0.1-0.7,0.3-1.3,0.3-2c0.8,0,1.6,0,2.4,0
	c0.1,0.7,0.7,1.3,1.4,1.4c0.8,0.1,1.6-0.4,1.9-1.2c1.6,0.1,3.1,0.3,4.6,0.6c3.4,0.6,6.9,1.5,10.2,2.5
	C154.5,130,153.5,130.5,152.6,130.2z M142.7,125.1c-0.9-0.2-1.8-0.3-2.7-0.4c-0.2-0.6-0.7-1-1.3-1.2c-0.7-0.1-1.4,0.3-1.7,0.9
	c-0.8,0-1.6,0-2.4,0c0.1-1.8,0-3.7-0.5-5.4h0c6.3,2.1,12.4,4.6,18.3,7.6l0.2,0.2c0.9-0.3,2,0.2,2.3,1.2c0.1,0.2,0.1,0.4,0.1,0.6
	C150.9,127,146.8,125.9,142.7,125.1z"/>
<pattern  id="SVGID_1_" xlink:href="#pattern" patternTransform="matrix(1 0 0 1 194.71 926.588)">
</pattern>
<path class="st1" d="M107.4,72.7c-0.4-0.3-5.6-4.2-5.9-4.4c-3.2-2.4-6.1-4.7-8.7-6.9c-1.4,0.5-2.8,0.9-4.3,1.1l0,0
	c-1.2,0.1-2.4,0.2-3.5,0.1c0.6,0.9,1.2,1.8,1.9,2.7c1,1.4,2.1,2.8,3.1,4.2C93.9,70.9,100.6,74.7,107.4,72.7z"/>
<pattern  id="SVGID_2_" xlink:href="#pattern" patternTransform="matrix(1 0 0 1 194.71 926.588)">
</pattern>
<path class="st2" d="M90.5,9.8c-0.4-0.1-0.8-0.1-1.2-0.1c-4.7,0-7.3,4-9.1,6.5l0,0c-0.3,0.9-1,3.4-1.3,4.3c-0.8,3-1.6,5.8-2.1,8.5
	c1.8-0.8,3.7-1.3,5.6-1.7C84.4,21.2,87.2,15.3,90.5,9.8z"/>
<pattern  id="SVGID_3_" xlink:href="#pattern" patternTransform="matrix(1 0 0 1 194.71 926.588)">
</pattern>
<path class="st3" d="M75.2,29.6c0.4-4.9,1.1-9.8,2.1-14.7c-5,0.2-5.8,4.9-7,7.9l0,0c-0.7,3.4-1.3,6.9-1.6,10.4
	C70.8,31.8,73,30.6,75.2,29.6z"/>
<pattern  id="SVGID_4_" xlink:href="#pattern" patternTransform="matrix(1 0 0 1 194.71 926.588)">
</pattern>
<path class="st4" d="M63.9,27.8c-0.1,2-1,6.3-1.3,10c1.3-1.1,2.8-2.3,4.3-3.3c-0.3-7-0.9-16.6-4.6-18C63.6,20.1,64.1,24,63.9,27.8z"
	/>
<pattern  id="SVGID_5_" xlink:href="#pattern" patternTransform="matrix(1 0 0 1 194.71 926.588)">
</pattern>
<path class="st5" d="M73.2,59.3C74,61,75,62.7,76,64.6l0,0l2.1,2c3.1,1.6,6.7,4.3,10.1,5.1c-1.9-2.9-3.8-6.1-5.5-9.4
	C79.4,61.8,76.2,60.8,73.2,59.3z"/>
<pattern  id="SVGID_6_" xlink:href="#pattern" patternTransform="matrix(1 0 0 1 194.71 926.588)">
</pattern>
<path class="st6" d="M93.1,12.3L93.1,12.3c-1.3,1.7-2.5,3.5-3.7,5.2c-2.1,3.1-4,6.2-5.8,9.5c1-0.1,2-0.2,3-0.2
	c1.2,0,2.4,0.2,3.6,0.5c2.4-2.5,5.7-6.2,9.4-10.5c1.7-2,5.3-6.4,7-8.5c-1.2-0.3-2.4-0.5-3.6-0.5C99.1,7.6,95.5,9.3,93.1,12.3z"/>
<pattern  id="SVGID_7_" xlink:href="#pattern" patternTransform="matrix(1 0 0 1 194.71 926.588)">
</pattern>
<polygon class="st7" points="165.8,25.8 165.8,25.8 165.8,25.8 "/>
<pattern  id="SVGID_8_" xlink:href="#pattern" patternTransform="matrix(1 0 0 1 194.71 926.588)">
</pattern>
<path class="st8" d="M91,27.5c1.5,0.4,2.9,1,4.3,1.7c3.4-2.6,7.6-6,12-9.7l9.7-8.1c-1.4-0.9-3-1.3-4.6-1.3c-1.8,0-3.6,0.4-5.3,1.1
	l0,0C100.8,18,95,24,91,27.5z"/>
<pattern  id="SVGID_9_" xlink:href="#pattern" patternTransform="matrix(1 0 0 1 194.71 926.588)">
</pattern>
<path class="st9" d="M132.6,16.2c-2.3-0.9-4.8-1.6-7.2-2.1c-1.3-0.2-2.6-0.3-3.9-0.3c-0.9,0-1.8,0.1-2.7,0.2l0,0
	c-1.9,1.4-2.9,2.2-4.9,3.6c-6.2,4.6-12.5,9-17.4,12.2c1,0.6,1.9,1.2,2.7,1.9c3.3-1.4,6.9-3,10.6-4.8C116,24,126.3,19.4,132.6,16.2z"
	/>
<pattern  id="SVGID_10_" xlink:href="#pattern-2" patternTransform="matrix(1 0 0 1 117.744 974.702)">
</pattern>
<path class="st10" d="M9,89.2c2.1-17.9,13.4-34.2,33-39.2c0.3-0.1,0.4-0.3,0.4-0.6c-0.1-0.2-0.3-0.4-0.5-0.4c0,0-0.1,0-0.1,0
	C21.1,53.4,8.7,70.2,5.7,88.8C5.1,92.3,4.8,95.8,5,99.4l3.9,0C8.6,96,8.6,92.6,9,89.2z"/>
<path class="st11" d="M87.6,57.1c5.6-1.1,11.6-5.2,11.1-13.6c-0.4-8-6.9-10.2-10.8-11c-5.6-1.2-12,0.9-15.3,8.4c0,0,8.5,0.3,9.4,2.8
	c0.6,0.9-3.6,4.3-9.9,4.5C72.3,48.3,77.6,59.1,87.6,57.1z"/>
<polygon class="st11" points="72.7,41 72.7,41 72.7,41 "/>
</svg>
