<?xml version="1.0" encoding="utf-8"?>
<!-- Generator: Adobe Illustrator 25.2.1, SVG Export Plug-In . SVG Version: 6.00 Build 0)  -->
<svg version="1.1" id="Grupo_17" xmlns="http://www.w3.org/2000/svg" xmlns:xlink="http://www.w3.org/1999/xlink" x="0px" y="0px"
	 viewBox="0 0 126.2 102.8" style="enable-background:new 0 0 126.2 102.8;" xml:space="preserve">
<style type="text/css">
	.st0{fill:none;}
	.st1{clip-path:url(#SVGID_2_);}
	.st2{clip-path:url(#SVGID_4_);}
	.st3{fill:url(#Retângulo_1_1_);}
	.st4{clip-path:url(#SVGID_6_);}
	.st5{clip-path:url(#SVGID_8_);}
	.st6{clip-path:url(#SVGID_10_);}
	.st7{fill-rule:evenodd;clip-rule:evenodd;fill:#35682A;}
	.st8{clip-path:url(#SVGID_12_);}
	.st9{clip-path:url(#SVGID_14_);}
	.st10{fill:url(#Retângulo_6_1_);}
	.st11{clip-path:url(#SVGID_16_);}
	.st12{fill-rule:evenodd;clip-rule:evenodd;fill:#35692B;}
	.st13{fill-rule:evenodd;clip-rule:evenodd;fill:#36692B;}
</style>
<pattern  y="102.8" width="88.6" height="88.6" patternUnits="userSpaceOnUse" id="pattern" viewBox="0 -88.6 88.6 88.6" style="overflow:visible;">
	<g>
		<rect y="-88.6" class="st0" width="88.6" height="88.6"/>
		
			<image style="overflow:visible;enable-background:new    ;" width="484" height="271" xlink:href="68377F04.jpg"  transform="matrix(0.183 0 0 -0.183 0 -19.4855)">
		</image>
	</g>
</pattern>
<pattern  y="102.8" width="94.4" height="94.4" patternUnits="userSpaceOnUse" id="pattern-2" viewBox="0 -94.4 94.4 94.4" style="overflow:visible;">
	<g>
		<rect y="-94.4" class="st0" width="94.4" height="94.4"/>
		
			<image style="overflow:visible;enable-background:new    ;" width="516" height="397" xlink:href="68377F07.jpg"  transform="matrix(0.183 0 0 -0.183 0 -10.886)">
		</image>
	</g>
</pattern>
<g id="Grupo_4" transform="translate(30.573 0.759)">
	<g>
		<defs>
			<path id="SVGID_1_" d="M31.8,39.5c-0.8,0.1-1.7,0.1-2.5,0.1c0.4,0.6,0.9,1.3,1.4,1.9c0.7,1,1.5,2,2.3,3c2.8,1.1,7.7,3.8,12.6,2.4
				c-0.3-0.2-4-3-4.3-3.2c-2.3-1.7-4.4-3.4-6.3-5C33.9,39.1,32.9,39.3,31.8,39.5 M22.8,41l1.5,1.4c2.2,1.1,4.8,3.1,7.3,3.7
				c-1.3-2.1-2.7-4.4-3.9-6.8c-2.4-0.4-4.7-1.1-6.9-2.2C21.4,38.4,22.1,39.7,22.8,41 M36.1,38.1c0.9,0.6,1.7,1.2,2.7,1.9
				c2.1,1.5,5.8,2.9,8.1,4.3c6,0.2,12,0.2,17.1-3.9c-3.1-0.3-8-1.3-11.1-1.7c-4.5-0.6-9-1.7-13.3-3.1C38.5,36.6,37.4,37.5,36.1,38.1
				 M16.4,35.2c1.6,3.6,2.6,7.4,3.2,11.3c1.5-2.2,0.8-6.3-0.2-9.9c-1-0.6-2-1.2-3-1.8C16.4,34.9,16.4,35,16.4,35.2 M40.2,34.9
				c6.7,1.7,13.5,2.8,20.4,3.2c1.5,0,4.3,0.2,5.2-0.3c4-1.9,7.9-4.8,8.6-7.3c-4.1,0.2-9.1,0.7-13.3,0.6c-6.9-0.1-13.5-0.7-18.1-1.9
				C42.6,31.3,41.6,33.3,40.2,34.9 M72.9,23.1c-4,0.8-8.3,1.4-12.5,2c-5.6,0.8-11.2,1.1-16.9,0.8c0,1-0.1,2-0.3,3
				c4.2,0.7,8.5,1,12.7,0.8c4.7,0,9.8-0.4,14.7-0.8c1.8-0.1,2.6-0.2,4.3-0.3c3-1.8,5.1-4.4,5.4-7C78,22.1,75.5,22.6,72.9,23.1
				 M8.2,13.3C12.5,27.1,0.3,26.6,0,29c1.9,2.7,10.5-0.4,14.1,15.2c1.7-3.5,0.9-8.2-0.6-11.4c-2.4-1.8-4.5-3.5-6.3-4.9
				c1.3-1.5,2.6-3,4.1-4.3c0.1-4.6-1-10.2-2.8-10.2C8.3,13.3,8.3,13.3,8.2,13.3 M80.5,12.5c-2.2,0.7-3.6,1-6.5,1.8
				c-3.4,0.9-7.1,1.9-10.8,2.8c-7.5,1.8-15.1,3.5-20.5,4.6c0.4,1.1,0.7,2.3,0.7,3.6c3.8,0,7.7-0.4,11.4-1c4.7-0.7,9.7-1.8,14.4-2.8
				c3.9-0.8,7.5-1.7,10.7-2.5c0.6-0.1,1.1-0.3,1.6-0.4c4.8-2,5.9-5.6,5.9-5.6c-1.3-0.4-2.6-0.7-3.9-0.9c-0.1,0-0.2,0-0.3,0
				C82.4,12.1,81.4,12.2,80.5,12.5 M63.8,8.2c-3.5,1.6-7.1,3.2-10.7,4.7c-4.5,1.9-9,3.6-12.8,5c1,0.9,1.8,2.1,2.3,3.3
				c5.9-1.6,14.6-4.2,22.7-6.7c2.5-0.8,5-1.5,7.3-2.2c1-0.3,4.3-1.3,5.2-1.6C75.2,9,70.5,8.1,66.4,8.1C65.5,8.1,64.6,8.1,63.8,8.2
				 M14.1,14.5c-0.1,1.4-0.7,4.6-0.9,7.2c1-0.8,2-1.6,3.1-2.4c-0.2-5-0.6-12-3.3-13C13.8,9,14.2,11.7,14.1,14.5 M18.7,10.9
				c-0.5,2.5-0.9,5-1.1,7.5c1.5-1,3-1.9,4.7-2.6c0.3-3.6,0.8-7.1,1.5-10.6C20.2,5.4,19.5,8.7,18.7,10.9 M53.7,4.5
				c-1.3,1-2.1,1.6-3.5,2.6c-4.5,3.3-9,6.5-12.6,8.8c0.7,0.4,1.3,0.9,2,1.4c2.4-1,5-2.2,7.7-3.4c4.5-2.1,11.9-5.4,16.4-7.7
				C62,5.5,60.2,5,58.4,4.6c-0.9-0.1-1.9-0.2-2.8-0.2C55,4.4,54.3,4.4,53.7,4.5 M45.3,2.5c-4.6,4.9-8.8,9.2-11.7,11.7
				c1.1,0.3,2.1,0.7,3.1,1.2c2.5-1.9,5.5-4.3,8.7-7l7-5.9c-1-0.6-2.2-1-3.3-0.9C47.8,1.7,46.5,2,45.3,2.5 M25.7,6.1
				c-0.2,0.7-0.7,2.4-0.9,3.1c-0.6,2.2-1.1,4.2-1.5,6.1c1.3-0.5,2.7-1,4.1-1.2c1.5-4.4,3.5-8.6,5.9-12.6c-0.3,0-0.6-0.1-0.9-0.1
				C29,1.5,27,4.3,25.7,6.1 M35.1,3.3c-0.9,1.3-1.8,2.5-2.6,3.8c-1.5,2.2-2.9,4.5-4.2,6.9c0.7-0.1,1.4-0.1,2.1-0.1
				c0.9,0,1.7,0.1,2.6,0.3c1.7-1.8,4.1-4.5,6.7-7.6c1.2-1.4,3.8-4.6,5.1-6.2C44,0.1,43.1,0,42.2,0C39.5,0,36.9,1.2,35.1,3.3"/>
		</defs>
		<clipPath id="SVGID_2_">
			<use xlink:href="#SVGID_1_"  style="overflow:visible;"/>
		</clipPath>
		<g id="Grupo_3" class="st1">
			<g id="Grupo_2" transform="translate(-0.439 -0.759)">
				<g>
					<defs>
						<rect id="SVGID_3_" x="0" width="88.6" height="49.6"/>
					</defs>
					<clipPath id="SVGID_4_">
						<use xlink:href="#SVGID_3_"  style="overflow:visible;"/>
					</clipPath>
					<g id="Grupo_1" transform="translate(0 0)" class="st2">
						<pattern  id="Retângulo_1_1_" xlink:href="#pattern" patternTransform="matrix(1 0 0 1 111.922 906.071)">
						</pattern>
						<rect id="Retângulo_1" x="0" class="st3" width="88.6" height="49.6"/>
					</g>
				</g>
			</g>
		</g>
	</g>
</g>
<g id="Grupo_8" transform="translate(30.573 0.759)">
	<g>
		<defs>
			<path id="SVGID_5_" d="M31.8,39.5c-0.8,0.1-1.7,0.1-2.5,0.1c0.4,0.6,0.9,1.3,1.4,1.9c0.7,1,1.5,2,2.3,3c2.8,1.1,7.7,3.8,12.6,2.4
				c-0.3-0.2-4-3-4.3-3.2c-2.3-1.7-4.4-3.4-6.3-5C33.9,39.1,32.9,39.3,31.8,39.5 M22.8,41l1.5,1.4c2.2,1.1,4.8,3.1,7.3,3.7
				c-1.3-2.1-2.7-4.4-3.9-6.8c-2.4-0.4-4.7-1.1-6.9-2.2C21.4,38.4,22.1,39.7,22.8,41 M36.1,38.1c0.9,0.6,1.7,1.2,2.7,1.9
				c2.1,1.5,5.8,2.9,8.1,4.3c6,0.2,12,0.2,17.1-3.9c-3.1-0.3-8-1.3-11.1-1.7c-4.5-0.6-9-1.7-13.3-3.1C38.5,36.6,37.4,37.5,36.1,38.1
				 M16.4,35.2c1.6,3.6,2.6,7.4,3.2,11.3c1.5-2.2,0.8-6.3-0.2-9.9c-1-0.6-2-1.2-3-1.8C16.4,34.9,16.4,35,16.4,35.2 M40.2,34.9
				c6.7,1.7,13.5,2.8,20.4,3.2c1.5,0,4.3,0.2,5.2-0.3c4-1.9,7.9-4.8,8.6-7.3c-4.1,0.2-9.1,0.7-13.3,0.6c-6.9-0.1-13.5-0.7-18.1-1.9
				C42.6,31.3,41.6,33.3,40.2,34.9 M72.9,23.1c-4,0.8-8.3,1.4-12.5,2c-5.6,0.8-11.2,1.1-16.9,0.8c0,1-0.1,2-0.3,3
				c4.2,0.7,8.5,1,12.7,0.8c4.7,0,9.8-0.4,14.7-0.8c1.8-0.1,2.6-0.2,4.3-0.3c3-1.8,5.1-4.4,5.4-7C78,22.1,75.5,22.6,72.9,23.1
				 M8.2,13.3C12.5,27.1,0.3,26.6,0,29c1.9,2.7,10.5-0.4,14.1,15.2c1.7-3.5,0.9-8.2-0.6-11.4c-2.4-1.8-4.5-3.5-6.3-4.9
				c1.3-1.5,2.6-3,4.1-4.3c0.1-4.6-1-10.2-2.8-10.2C8.3,13.3,8.3,13.3,8.2,13.3 M80.5,12.5c-2.2,0.7-3.6,1-6.5,1.8
				c-3.4,0.9-7.1,1.9-10.8,2.8c-7.5,1.8-15.1,3.5-20.5,4.6c0.4,1.1,0.7,2.3,0.7,3.6c3.8,0,7.7-0.4,11.4-1c4.7-0.7,9.7-1.8,14.4-2.8
				c3.9-0.8,7.5-1.7,10.7-2.5c0.6-0.1,1.1-0.3,1.6-0.4c4.8-2,5.9-5.6,5.9-5.6c-1.3-0.4-2.6-0.7-3.9-0.9c-0.1,0-0.2,0-0.3,0
				C82.4,12.1,81.4,12.2,80.5,12.5 M63.8,8.2c-3.5,1.6-7.1,3.2-10.7,4.7c-4.5,1.9-9,3.6-12.8,5c1,0.9,1.8,2.1,2.3,3.3
				c5.9-1.6,14.6-4.2,22.7-6.7c2.5-0.8,5-1.5,7.3-2.2c1-0.3,4.3-1.3,5.2-1.6C75.2,9,70.5,8.1,66.4,8.1C65.5,8.1,64.6,8.1,63.8,8.2
				 M14.1,14.5c-0.1,1.4-0.7,4.6-0.9,7.2c1-0.8,2-1.6,3.1-2.4c-0.2-5-0.6-12-3.3-13C13.8,9,14.2,11.7,14.1,14.5 M18.7,10.9
				c-0.5,2.5-0.9,5-1.1,7.5c1.5-1,3-1.9,4.7-2.6c0.3-3.6,0.8-7.1,1.5-10.6C20.2,5.4,19.5,8.7,18.7,10.9 M53.7,4.5
				c-1.3,1-2.1,1.6-3.5,2.6c-4.5,3.3-9,6.5-12.6,8.8c0.7,0.4,1.3,0.9,2,1.4c2.4-1,5-2.2,7.7-3.4c4.5-2.1,11.9-5.4,16.4-7.7
				C62,5.5,60.2,5,58.4,4.6c-0.9-0.1-1.9-0.2-2.8-0.2C55,4.4,54.3,4.4,53.7,4.5 M45.3,2.5c-4.6,4.9-8.8,9.2-11.7,11.7
				c1.1,0.3,2.1,0.7,3.1,1.2c2.5-1.9,5.5-4.3,8.7-7l7-5.9c-1-0.6-2.2-1-3.3-0.9C47.8,1.7,46.5,2,45.3,2.5 M25.7,6.1
				c-0.2,0.7-0.7,2.4-0.9,3.1c-0.6,2.2-1.1,4.2-1.5,6.1c1.3-0.5,2.7-1,4.1-1.2c1.5-4.4,3.5-8.6,5.9-12.6c-0.3,0-0.6-0.1-0.9-0.1
				C29,1.5,27,4.3,25.7,6.1 M35.1,3.3c-0.9,1.3-1.8,2.5-2.6,3.8c-1.5,2.2-2.9,4.5-4.2,6.9c0.7-0.1,1.4-0.1,2.1-0.1
				c0.9,0,1.7,0.1,2.6,0.3c1.7-1.8,4.1-4.5,6.7-7.6c1.2-1.4,3.8-4.6,5.1-6.2C44,0.1,43.1,0,42.2,0C39.5,0,36.9,1.2,35.1,3.3"/>
		</defs>
		<clipPath id="SVGID_6_">
			<use xlink:href="#SVGID_5_"  style="overflow:visible;"/>
		</clipPath>
		<g id="Grupo_7" class="st4">
			<g id="Grupo_6" transform="translate(0 0)">
				<g>
					<defs>
						<rect id="SVGID_7_" x="0" y="0" width="87.6" height="47.3"/>
					</defs>
					<clipPath id="SVGID_8_">
						<use xlink:href="#SVGID_7_"  style="overflow:visible;"/>
					</clipPath>
					<g id="Grupo_5" class="st5">
						
							<image style="overflow:visible;enable-background:new    ;" width="958" height="517" id="Retângulo_3" xlink:href="68377F06.png"  transform="matrix(9.143714e-02 0 0 9.143714e-02 6.103058e-04 0)">
						</image>
					</g>
				</g>
			</g>
		</g>
	</g>
</g>
<g id="Grupo_10">
	<g>
		<defs>
			<rect id="SVGID_9_" width="126.2" height="102.8"/>
		</defs>
		<clipPath id="SVGID_10_">
			<use xlink:href="#SVGID_9_"  style="overflow:visible;"/>
		</clipPath>
		<g id="Grupo_9" class="st6">
			<path id="Caminho_3" class="st7" d="M111.7,66.9c-0.2,0.3-0.3,0.5-0.4,0.7c-1.8,2.6-2.1,4.2-4.4,8c-1,1.6-3.7,1-4.6-0.7
				s-0.5-3.7-0.1-5.5c0.3-1.3,0.5-2.6,0.8-3.9c-1.9,2.3-3.6,4.8-5.2,7.4c-0.7,0.8-1.8,0.9-2.6,0.2c-0.1-0.1-0.1-0.1-0.2-0.2
				c-0.7-0.8-0.3-3.2-0.2-4.3c-1.6,1.7-3.6,4.7-5.4,6c-1.8,1.5-4.1,2.1-6.4,1.7c-2.2-0.5-4-2.8-3.5-5l-3.5,5.7
				c-0.5,0.7-1,1.6-1.9,1.7c-0.6,0-1.2-0.1-1.7-0.3c-4-1.2-8.3-0.1-11.3,2.9c-0.6,0.5-1.5,0.5-2.1-0.1c-0.9-0.8-1.3-2.1-1-3.3
				c0.3-1.2,0.7-2.3,1.4-3.3c2-3.8,4.5-7.3,7.4-10.4c-1.2-0.4-2.5-0.2-3.4,0.7c-0.9,0.9-1.6,1.9-2.1,3.1l-6.6,13.1
				c-0.8,1.6-2,3.5-3.8,3.5c-1.6-0.2-3-1.3-3.5-2.8c-0.4-1.5-0.4-3-0.1-4.5c1.2-5.3,2.5-6.6,3.8-9.9c-0.3,0.4-0.8,0.5-1.3,0.4
				c-0.2,0-0.3-0.1-0.5-0.1c0,0.3,0,0.6-0.1,0.9c-0.2,1.3-2.2,4.9-4.7,7.9c-1.5,1.9-3.8,4.2-6,5.2s-4.9,1.1-6.7-0.5
				c-2.5-2.1-2.1-6.1-1-9.2c0.9-2.7,2.2-5.3,4.5-7s5.6-2.1,7.8-0.3c1.8,1.5,1.1,4.4,0,6.5c-0.7,1.5-1.9,2.7-3.3,3.6
				c-1.5,0.8-3.3,0.5-4.5-0.7c-0.9,1.9-1.1,4-0.8,6.1c1.5,0.2,3-0.7,4.3-1.6c2-1.3,3.9-2.9,5.4-4.7c1.5-1.7,3.9-5.8,3.7-6.8
				c-1.5-1.2-2.2-3.2-1.6-5.1c0.5-1.9,2-3.6,4-3c0.8,0.2,1.7,0.8,1.5,1.6c-0.3,0.8-0.7,1.6-1.2,2.2c-0.5,0.7-0.7,1.6-0.4,2.4
				c1.2-0.4,2.4-0.4,3.6-0.1c1.2,0.4,1.9,1.6,1.6,2.9c-1.9,4.2-5.5,9.4-3.6,12.8l9.5-17c0.4-1,1.3-1.6,2.4-1.7
				c1.8-0.3,3.6-0.5,5.5-0.5c1.6-0.1,2.9-0.3,3.1,0.7c0.1,0.9-0.2,1.8-0.8,2.5l-8.1,11.9c2.3-0.4,4.7-0.6,7.1-0.8
				c-0.8-4.8,1.6-9.6,3.9-13.9c0.2-0.6,0.6-1.1,1.1-1.5c0.8-0.5,1.9-0.3,2.4,0.6c0.4,0.6,0.4,1.3,0,1.9c-2.4,3.8-3.8,8.1-4.2,12.5
				l6.6-10.1c0.9-1.6,2.1-3,3.4-4.3c1.4-1.3,3.2-1.9,5.1-1.8c1.9,0.2,3.4,1.7,3.6,3.6c-0.1,1.3-0.5,2.6-1.4,3.6
				c-0.7,1.3-1.8,2.3-3,3.1c-1.3,0.7-2.9,0.4-3.9-0.7c-0.7,1.7-1,3.6-0.8,5.4c4.1,0,7.1-4.2,10.1-7.1c0.9-0.9,1.7-1.9,2.4-3
				c0,0,0.8-4.5,1.6-4.5c1.5,0,2.2,1,2.1,2.5s-0.7,2.8-0.8,4.2l5.2-6.2c1-1.1,2.4-2.4,3.7-1.7c0.9,0.5,1.3,1.6,1.1,2.6
				c-0.2,1-0.6,1.9-1.2,2.7c-1.6,3-2.5,6.3-2.6,9.6c1-1.8,2.1-3.5,3.4-5.1c0.5-0.6,0.9-1.2,1.3-1.8c1.2-1.7,3.2-2.6,5.2-2.4
				c2.1,0.1,4.1,1.1,5.5,2.6c2,2,3.5,4.4,4.3,7.1c1,2.6,1.4,5.4,1.3,8.3c-0.1,2-0.7,3.9-1.8,5.5c-1.1,1.7-2.8,2.9-4.8,3.4
				c-0.8,0.2-1.7,0.2-2.5,0.2c-0.9,0-1.7-0.2-2.5-0.5l-1.5-0.5c-0.3-0.1-0.5-0.5-0.4-0.8c0.1-0.3,0.5-0.5,0.8-0.4c0,0,0,0,0,0
				l1.5,0.5c0.7,0.3,1.4,0.4,2.1,0.4c0.7,0,1.5,0,2.2-0.2c1.7-0.4,3.1-1.4,4-2.8c1-1.5,1.5-3.1,1.6-4.9c0.1-2.6-0.3-5.3-1.2-7.8
				c-0.9-2.5-2.3-4.9-4.1-6.8c-1.2-1.2-2.7-1.9-4.3-2.2C113.9,65.2,112.5,65.8,111.7,66.9z M27.3,64c1.2-2.3,1.5-3.3,3.3-6.3
				c0.8-1.5,1.7-2.9,2.7-4.3c0.2-0.3,0.6-0.4,0.9-0.4c0.5,0.1,1,0.3,1.5,0.7c0.4,0.5,0.4,1.2,0.1,1.8c-1.9,3.1-3.7,6.3-5.2,9.6
				C28,70.6,25.8,76.3,24.2,82c-0.2,0.8-0.5,1.6-1,2.3c-0.5,0.7-1.3,1.1-2.2,1c-1-0.2-1.5-1.2-1.9-2.2c-1.4-3.9-2.3-7.9-2.9-11.9
				c-0.5-6.3,0.6-12.6,1.1-19c0.1-1.9,0.2-3.7,0.5-5.5c0.2-1,1.2-1.6,2.2-1.4c0,0,0.1,0,0.1,0c0.9,0.1,1.7,0.7,2,1.5
				c0.3,0.8,0.4,1.7,0.4,2.6c0,2.5-0.2,5-0.6,7.5c-0.8,5.7-2.2,10.3-0.3,20.2C23.4,72.7,25.2,68.3,27.3,64L27.3,64z M41.3,67
				c-0.2-0.2-0.5-0.1-0.7,0.1c-1.9,1.2-3.4,3-4.4,5.1c-0.1,0.1-0.1,0.2,0,0.3c0.1,0.2,0.4,0.1,0.5,0c0.8-0.4,1.4-0.9,2.1-1.5
				c0.4-0.4,0.7-0.9,1-1.4L41.3,67L41.3,67z M85.4,67.3c1.2-0.6,2.2-1.5,2.8-2.7l1.2-2c0.1-0.1,0.1-0.2,0.1-0.3
				c-0.1-0.1-0.3-0.1-0.4,0c-1.9,1.1-3.4,2.8-4.3,4.8c-0.1,0.1,0.1,0.2,0.2,0.3C85.2,67.5,85.3,67.4,85.4,67.3 M100.9,65.2
				C100.9,65.2,101,65.3,100.9,65.2L100.9,65.2C101,65.3,100.9,65.2,100.9,65.2L100.9,65.2z M83,53c-1.3,1.1-2.3,2.4-3,4
				c-0.2,0.4-0.7,0.4-1.1,0.2c-0.3-0.3-0.7-0.5-1-0.8c-0.5-0.4-0.4-1.2-0.2-1.8c0.2-0.9,0.6-1.8,1-2.7c0.2-0.4,0.5-0.8,0.8-1.1
				c0.3-0.3,0.8-0.4,1.2-0.3c0.7,0.2,1.4,0.5,2,0.9C83.2,51.9,83.3,52.5,83,53"/>
		</g>
	</g>
</g>
<g id="Grupo_14" transform="translate(2.09 30.591)">
	<g>
		<defs>
			<path id="SVGID_11_" d="M26.6,0C11.6,3.2,2.7,15.2,0.5,28.7C-1.7,42.1,3,56.9,15.1,66c6.9,5.2,15.3,5.9,24.3,4.6
				c5.6-1,11.1-2.3,16.5-4c12-3.5,24-7.8,33.8-6.7c0.4-0.9,0.8-1.8,1-2.7c0.2-0.7,0.4-1.4,0.5-2.1c0.2-1.6,0.1-3.3-0.4-4.8
				c0,0,0,0-0.1,0C75.4,49.9,56,61.7,38.5,65.3c-7.6,1.6-14.9,1.4-21-2.8C6.1,54.8,1.5,41.4,3,29C4.5,16.1,12.6,4.4,26.8,0.7
				c0.2,0,0.3-0.2,0.3-0.4C27,0.1,26.9,0,26.6,0C26.7,0,26.6,0,26.6,0"/>
		</defs>
		<clipPath id="SVGID_12_">
			<use xlink:href="#SVGID_11_"  style="overflow:visible;"/>
		</clipPath>
		<g id="Grupo_13" class="st8">
			<g id="Grupo_12" transform="translate(-2.09 -0.391)">
				<g>
					<defs>
						<rect id="SVGID_13_" y="0" width="94.4" height="72.6"/>
					</defs>
					<clipPath id="SVGID_14_">
						<use xlink:href="#SVGID_13_"  style="overflow:visible;"/>
					</clipPath>
					<g id="Grupo_11" class="st9">
						<pattern  id="Retângulo_6_1_" xlink:href="#pattern-2" patternTransform="matrix(1 0 0 1 58.372 894.902)">
						</pattern>
						<rect id="Retângulo_6" y="0" class="st10" width="94.4" height="72.6"/>
					</g>
				</g>
			</g>
		</g>
	</g>
</g>
<g id="Grupo_16">
	<g>
		<defs>
			<rect id="SVGID_15_" width="126.2" height="102.8"/>
		</defs>
		<clipPath id="SVGID_16_">
			<use xlink:href="#SVGID_15_"  style="overflow:visible;"/>
		</clipPath>
		<g id="Grupo_15" class="st11">
			<path id="Caminho_5" class="st12" d="M95.5,85.9c0.6,0,1.2,0,1.7,0c0.1,0.5,0.5,0.9,1,1c0.6,0.1,1.2-0.3,1.3-0.9
				c1.1,0.1,2.2,0.2,3.3,0.4c2.5,0.5,4.9,1.1,7.4,1.8c-0.2,0.7-0.9,1.1-1.6,0.9c-0.3-0.1-0.5-0.3-0.7-0.5h0v-0.1
				c-4.4-0.7-8.9-0.4-13.2,0.8c0.2-0.7,0.4-1.4,0.6-2.1C95.4,86.8,95.4,86.4,95.5,85.9z M95.3,81c4.5,1.5,8.9,3.3,13.2,5.5l0.1,0.1
				c0.7-0.2,1.4,0.2,1.6,0.8c0,0.1,0.1,0.3,0.1,0.4c-2.9-1.1-5.8-1.9-8.8-2.5c-0.6-0.1-1.3-0.2-1.9-0.3c-0.1-0.4-0.5-0.7-0.9-0.8
				c-0.5-0.1-1,0.2-1.3,0.7c-0.6,0-1.2,0-1.8,0C95.7,83.6,95.6,82.3,95.3,81L95.3,81z"/>
			<path id="Caminho_6" class="st13" d="M51,24.8c0,0,6.1,0.2,6.8,2.1c0.4,0.6-2.6,3.1-7.1,3.2c0,0,3.8,7.8,11.1,6.4
				c4.1-0.8,8.4-3.8,8-9.8c-0.3-5.8-5-7.3-7.8-8C58,17.8,53.3,19.3,51,24.8"/>
		</g>
	</g>
</g>
</svg>
