<?xml version="1.0" encoding="utf-8"?>
<!-- Generator: Adobe Illustrator 28.0.0, SVG Export Plug-In . SVG Version: 6.00 Build 0)  -->
<svg version="1.1" id="Laag_1" xmlns="http://www.w3.org/2000/svg" xmlns:xlink="http://www.w3.org/1999/xlink" x="0px" y="0px"
	 viewBox="0 0 208 170" style="enable-background:new 0 0 208 170;" xml:space="preserve">
<style type="text/css">
	.st0{fill:#FFFFFF;}
	.st1{fill-rule:evenodd;clip-rule:evenodd;fill:#36692B;}
	.st2{fill-rule:evenodd;clip-rule:evenodd;fill:url(#SVGID_1_);}
	.st3{fill-rule:evenodd;clip-rule:evenodd;fill:url(#SVGID_00000159461071382740457640000011709956872444856450_);}
	.st4{fill-rule:evenodd;clip-rule:evenodd;fill:#35682A;}
	.st5{fill-rule:evenodd;clip-rule:evenodd;fill:#35692B;}
	.st6{fill-rule:evenodd;clip-rule:evenodd;fill:url(#SVGID_00000004525735140205930520000016411215509912135823_);}
</style>
<path class="st0" d="M0,155.6c3.2,1.2,6.5,2.3,10.1,3.3c13.8,3.8,28,6.2,41.6,8.2c33.4,5,64.9,4.4,91.5-8.7
	c5.8-2.9,11.5-6.1,16.9-9.8c2.3-1.5,4.5-3.1,6.6-4.8c5.9-4.2,11.2-9.1,15.9-14.6c20.7-22.9,28.6-50.7,24.2-77
	C203.7,33.3,194.4,15.2,179,0H0V155.6z"/>
<g>
	<path class="st1" d="M74.5,53c0,0,6.2,0.2,6.9,2.1c0.4,0.6-2.7,3.1-7.2,3.3c0,0,3.9,7.8,11.2,6.4c4.1-0.8,8.5-3.8,8.1-9.9
		c-0.3-5.8-5-7.4-7.8-8C81.6,46,76.9,47.5,74.5,53L74.5,53z"/>
	
		<radialGradient id="SVGID_1_" cx="84.1755" cy="56.2521" r="40.2641" gradientTransform="matrix(0.9805 -0.1518 8.592620e-02 0.555 -3.7732 37.5318)" gradientUnits="userSpaceOnUse">
		<stop  offset="0.4552" style="stop-color:#F6DD02"/>
		<stop  offset="0.604" style="stop-color:#EDC411"/>
		<stop  offset="0.9195" style="stop-color:#D58337"/>
		<stop  offset="1" style="stop-color:#CE7141"/>
	</radialGradient>
	<path class="st2" d="M89,67.9c-1,0.4-2.1,0.7-3.1,0.8c-0.9,0.1-1.7,0.1-2.6,0.1c0.4,0.6,0.9,1.3,1.4,2c0.7,1,1.5,2,2.3,3
		c2.9,1.1,7.7,3.8,12.7,2.4c-0.3-0.2-4.1-3-4.3-3.2C93.1,71.1,90.9,69.5,89,67.9L89,67.9z M70.4,63.9c0,0.2,0,0.3,0.1,0.4
		c1.2,2.7,2.4,5.9,3.2,11.4c1.5-2.2,0.8-6.3-0.2-10C72.4,65.1,71.3,64.5,70.4,63.9L70.4,63.9z M74.8,66.4c0.6,1.2,1.3,2.5,2,3.8
		l1.5,1.5c2.2,1.1,4.9,3.1,7.4,3.7c-1.4-2.1-2.7-4.5-4-6.8C79.4,68.3,77,67.5,74.8,66.4L74.8,66.4z M93.7,64.8c-1,1-2.2,1.9-3.5,2.5
		c0.9,0.6,1.8,1.3,2.7,1.9c2.1,1.5,5.9,2.9,8.2,4.3c6,0.2,12.1,0.2,17.2-3.9c-3.1-0.3-8-1.3-11.2-1.8
		C102.2,67.1,97.4,66.1,93.7,64.8L93.7,64.8z M67.4,61.8c-2.4-1.8-4.6-3.6-6.4-5c0.8-1,2.2-2.6,4.1-4.4c0.1-4.7-1.1-10.6-3-10.3
		c4.3,13.9-7.9,13.4-8.3,15.8c1.9,2.8,10.6-0.4,14.2,15.3C69.8,69.8,68.9,65.1,67.4,61.8L67.4,61.8z M97.3,58.3
		c-0.5,2.2-1.5,4.2-2.9,5.7c6,1.5,15,3.1,20.6,3.2c1.5,0,4.4,0.2,5.3-0.3c4-1.9,8-4.8,8.7-7.3c-4.1,0.2-9.2,0.7-13.5,0.6
		C108.5,60.2,101.8,59.6,97.3,58.3L97.3,58.3z M97.7,54.9c0,1.1-0.1,2.1-0.3,3c3.4,0.7,7.9,0.9,12.8,0.9c4.8,0,9.9-0.4,14.8-0.8
		c1.8-0.1,2.6-0.2,4.4-0.3c3.1-1.8,5.1-4.5,5.5-7.1c-2.3,0.5-4.8,1-7.5,1.5c-4.1,0.8-8.4,1.5-12.7,2
		C108.4,54.9,102.3,55.3,97.7,54.9L97.7,54.9z M97,50.7c0.4,1.1,0.7,2.3,0.7,3.6c3.3,0.1,7.3-0.3,11.6-1c4.7-0.7,9.8-1.8,14.5-2.8
		c3.9-0.9,7.6-1.7,10.8-2.5c0.6-0.1,1.1-0.3,1.7-0.4c4.9-2,5.9-5.7,5.9-5.7s-2.5-0.8-4-0.9c-0.7,0-2.1,0.1-3.2,0.4
		c-2.3,0.7-3.6,1-6.5,1.8c-3.4,1-7.1,1.9-10.9,2.9C110.1,48,102.4,49.6,97,50.7L97,50.7z M67.1,50.7c1-0.8,2-1.6,3.1-2.4
		c-0.2-5.1-0.6-12.1-3.4-13.1c0.8,2.3,1.3,5.5,1.2,8.2C68,44.9,67.3,48.1,67.1,50.7L67.1,50.7z M94.4,46.9c1,0.9,1.8,2,2.4,3.3
		c6-1.6,14.7-4.2,22.9-6.8c2.5-0.8,5-1.5,7.3-2.3c1-0.3,4.3-1.3,5.3-1.6c-3.2-1.9-9.5-3-14.1-2.4c-3.5,1.6-7.2,3.2-10.8,4.7
		C102.8,43.7,98.3,45.5,94.4,46.9L94.4,46.9z M71.6,47.4c1.5-1,3.1-1.9,4.7-2.7c0.3-3.5,0.8-7.4,1.5-10.7c-3.6,0.2-4.2,3.5-5.1,5.8
		C72.4,41.3,71.8,44.5,71.6,47.4L71.6,47.4z M91.7,44.9c0.7,0.4,1.4,0.9,2,1.4c2.4-1,5-2.2,7.7-3.5c4.5-2.1,12-5.5,16.6-7.8
		c-0.9-0.4-4.2-1.4-5.3-1.5c-2.6-0.4-3.8-0.2-4.8-0.1c-1.3,1-2.1,1.6-3.5,2.6C99.9,39.3,95.3,42.6,91.7,44.9L91.7,44.9z M87.8,43.2
		c1,0.3,2.1,0.7,3.1,1.2c2.5-1.9,5.6-4.4,8.8-7c2.1-1.7,7.1-5.9,7.1-5.9c-2.2-1.5-5.4-0.9-7.2-0.1C94.9,36.3,90.6,40.7,87.8,43.2
		L87.8,43.2z M77.3,44.3c1.3-0.6,2.7-1,4.1-1.3c1.4-4,3.6-8.9,5.9-12.7c-4-0.6-6.1,2.7-7.6,4.7c-0.2,0.7-0.7,2.5-0.9,3.1
		C78.3,40.3,77.7,42.4,77.3,44.3L77.3,44.3z M82.4,42.9c0.7-0.1,1.4-0.1,2.2-0.1c0.7,0,1.6,0.1,2.6,0.3c1.7-1.8,4.1-4.5,6.8-7.7
		c1.2-1.4,3.8-4.6,5.1-6.2c-3.3-0.9-7.3-0.1-9.8,3c-0.9,1.3-1.8,2.5-2.7,3.8C85,38.4,83.5,40.7,82.4,42.9L82.4,42.9z"/>
	
		<linearGradient id="SVGID_00000010292492213600161380000014832547472632373136_" gradientUnits="userSpaceOnUse" x1="62.936" y1="56.1181" x2="150.9095" y2="47.1375">
		<stop  offset="4.834492e-02" style="stop-color:#54912F"/>
		<stop  offset="9.134543e-02" style="stop-color:#6D8C31"/>
		<stop  offset="0.1825" style="stop-color:#AE8038"/>
		<stop  offset="0.2304" style="stop-color:#D3793B"/>
		<stop  offset="0.361" style="stop-color:#D3793B;stop-opacity:0"/>
	</linearGradient>
	<path style="fill-rule:evenodd;clip-rule:evenodd;fill:url(#SVGID_00000010292492213600161380000014832547472632373136_);" d="
		M89,67.9c-1,0.4-2.1,0.7-3.1,0.8c-0.9,0.1-1.7,0.1-2.6,0.1c0.4,0.6,0.9,1.3,1.4,2c0.7,1,1.5,2,2.3,3c2.9,1.1,7.7,3.8,12.7,2.4
		c-0.3-0.2-4.1-3-4.3-3.2C93.1,71.1,90.9,69.5,89,67.9L89,67.9z M70.4,63.9c0,0.2,0,0.3,0.1,0.4c1.2,2.7,2.4,5.9,3.2,11.4
		c1.5-2.2,0.8-6.3-0.2-10C72.4,65.1,71.3,64.5,70.4,63.9L70.4,63.9z M74.8,66.4c0.6,1.2,1.3,2.5,2,3.8l1.5,1.5
		c2.2,1.1,4.9,3.1,7.4,3.7c-1.4-2.1-2.7-4.5-4-6.8C79.4,68.3,77,67.5,74.8,66.4L74.8,66.4z M93.7,64.8c-1,1-2.2,1.9-3.5,2.5
		c0.9,0.6,1.8,1.3,2.7,1.9c2.1,1.5,5.9,2.9,8.2,4.3c6,0.2,12.1,0.2,17.2-3.9c-3.1-0.3-8-1.3-11.2-1.8
		C102.2,67.1,97.4,66.1,93.7,64.8L93.7,64.8z M67.4,61.8c-2.4-1.8-4.6-3.6-6.4-5c0.8-1,2.2-2.6,4.1-4.4c0.1-4.7-1.1-10.6-3-10.3
		c4.3,13.9-7.9,13.4-8.3,15.8c1.9,2.8,10.6-0.4,14.2,15.3C69.8,69.8,68.9,65.1,67.4,61.8L67.4,61.8z M97.3,58.3
		c-0.5,2.2-1.5,4.2-2.9,5.7c6,1.5,15,3.1,20.6,3.2c1.5,0,4.4,0.2,5.3-0.3c4-1.9,8-4.8,8.7-7.3c-4.1,0.2-9.2,0.7-13.5,0.6
		C108.5,60.2,101.8,59.6,97.3,58.3L97.3,58.3z M97.7,54.9c0,1.1-0.1,2.1-0.3,3c3.4,0.7,7.9,0.9,12.8,0.9c4.8,0,9.9-0.4,14.8-0.8
		c1.8-0.1,2.6-0.2,4.4-0.3c3.1-1.8,5.1-4.5,5.5-7.1c-2.3,0.5-4.8,1-7.5,1.5c-4.1,0.8-8.4,1.5-12.7,2
		C108.4,54.9,102.3,55.3,97.7,54.9L97.7,54.9z M97,50.7c0.4,1.1,0.7,2.3,0.7,3.6c3.3,0.1,7.3-0.3,11.6-1c4.7-0.7,9.8-1.8,14.5-2.8
		c3.9-0.9,7.6-1.7,10.8-2.5c0.6-0.1,1.1-0.3,1.7-0.4c4.9-2,5.9-5.7,5.9-5.7s-2.5-0.8-4-0.9c-0.7,0-2.1,0.1-3.2,0.4
		c-2.3,0.7-3.6,1-6.5,1.8c-3.4,1-7.1,1.9-10.9,2.9C110.1,48,102.4,49.6,97,50.7L97,50.7z M67.1,50.7c1-0.8,2-1.6,3.1-2.4
		c-0.2-5.1-0.6-12.1-3.4-13.1c0.8,2.3,1.3,5.5,1.2,8.2C68,44.9,67.3,48.1,67.1,50.7L67.1,50.7z M94.4,46.9c1,0.9,1.8,2,2.4,3.3
		c6-1.6,14.7-4.2,22.9-6.8c2.5-0.8,5-1.5,7.3-2.3c1-0.3,4.3-1.3,5.3-1.6c-3.2-1.9-9.5-3-14.1-2.4c-3.5,1.6-7.2,3.2-10.8,4.7
		C102.8,43.7,98.3,45.5,94.4,46.9L94.4,46.9z M71.6,47.4c1.5-1,3.1-1.9,4.7-2.7c0.3-3.5,0.8-7.4,1.5-10.7c-3.6,0.2-4.2,3.5-5.1,5.8
		C72.4,41.3,71.8,44.5,71.6,47.4L71.6,47.4z M91.7,44.9c0.7,0.4,1.4,0.9,2,1.4c2.4-1,5-2.2,7.7-3.5c4.5-2.1,12-5.5,16.6-7.8
		c-0.9-0.4-4.2-1.4-5.3-1.5c-2.6-0.4-3.8-0.2-4.8-0.1c-1.3,1-2.1,1.6-3.5,2.6C99.9,39.3,95.3,42.6,91.7,44.9L91.7,44.9z M87.8,43.2
		c1,0.3,2.1,0.7,3.1,1.2c2.5-1.9,5.6-4.4,8.8-7c2.1-1.7,7.1-5.9,7.1-5.9c-2.2-1.5-5.4-0.9-7.2-0.1C94.9,36.3,90.6,40.7,87.8,43.2
		L87.8,43.2z M77.3,44.3c1.3-0.6,2.7-1,4.1-1.3c1.4-4,3.6-8.9,5.9-12.7c-4-0.6-6.1,2.7-7.6,4.7c-0.2,0.7-0.7,2.5-0.9,3.1
		C78.3,40.3,77.7,42.4,77.3,44.3L77.3,44.3z M82.4,42.9c0.7-0.1,1.4-0.1,2.2-0.1c0.7,0,1.6,0.1,2.6,0.3c1.7-1.8,4.1-4.5,6.8-7.7
		c1.2-1.4,3.8-4.6,5.1-6.2c-3.3-0.9-7.3-0.1-9.8,3c-0.9,1.3-1.8,2.5-2.7,3.8C85,38.4,83.5,40.7,82.4,42.9L82.4,42.9z"/>
	<path class="st4" d="M135.7,95.6c-0.2,0.3-0.3,0.5-0.4,0.7c-1.8,2.6-2.1,4.2-4.5,8.1c-1,1.6-3.7,1-4.6-0.7
		c-0.9-1.7-0.5-3.7-0.1-5.6c0.3-1.3,0.6-2.6,0.8-3.9c-1.9,2.4-3.7,4.8-5.3,7.4c-0.6,0.9-2.1,0.8-2.9,0c-0.8-0.8-0.3-3.2-0.2-4.3
		c-1.6,1.7-3.6,4.7-5.4,6.1c-1.8,1.4-4.2,2.2-6.4,1.7c-2.2-0.5-4.1-2.8-3.6-5.1l-3.5,5.8c-0.5,0.8-1,1.6-1.9,1.7
		c-0.6,0.1-1.2-0.1-1.7-0.3c-3.9-1.2-8.5,0-11.4,2.9c-0.5,0.6-1.5,0.4-2.1-0.1c-0.9-0.8-1.2-2.1-1.1-3.3c0.2-1.2,0.8-2.3,1.4-3.3
		c2.1-3.7,4.4-7.4,7.5-10.5c-1.1-0.5-2.5-0.1-3.5,0.7s-1.5,2-2.1,3.1c-2.2,4.4-4.4,8.8-6.7,13.3c-0.8,1.6-2,3.5-3.8,3.5
		c-1.5,0-3.1-1.4-3.5-2.9c-0.4-1.4-0.4-3.1-0.1-4.5c1.2-5.4,2.6-6.6,3.9-9.9c-0.2,0.3-0.9,0.5-1.3,0.4c-0.2,0-0.3-0.1-0.5-0.1
		c0,0.2,0,0.5-0.1,0.9c-0.2,1.3-2.2,4.9-4.8,8c-1.5,1.9-3.8,4.3-6,5.3c-2.2,1-5,1.1-6.8-0.5c-2.5-2.2-2.1-6.2-1-9.3
		c0.9-2.7,2.3-5.3,4.5-7c2.3-1.7,5.6-2.1,7.8-0.3c1.9,1.5,1.1,4.5,0,6.6c-0.8,1.4-1.8,2.9-3.3,3.6c-1.5,0.7-3.5,0.6-4.5-0.7
		c-0.9,1.9-1.1,4.1-0.8,6.2c1.5,0.2,3-0.7,4.3-1.6c1.8-1.2,4.1-3.1,5.5-4.8c1.5-1.7,3.9-5.9,3.7-6.9c-1.5-1.1-2.2-3.3-1.6-5.1
		c0.6-1.9,2.1-3.6,4-3c0.8,0.2,1.7,0.8,1.5,1.6c-0.2,0.8-0.7,1.5-1.2,2.2c-0.5,0.7-0.8,1.7-0.4,2.4c1.2-0.3,2.5-0.5,3.6-0.1
		c1.2,0.4,2.1,1.8,1.6,2.9c-1.9,4.3-5.6,9.5-3.7,12.9c3.3-5.9,6.3-11.3,9.6-17.1c0.2-0.4,0.5-0.8,0.9-1.1c0.4-0.3,1-0.4,1.5-0.5
		c1.6-0.3,3.8-0.4,5.5-0.5c1.6-0.1,2.9-0.3,3.1,0.7c0.2,0.9-0.2,1.8-0.8,2.5c-2.5,3.7-5.7,8.3-8.2,12c2.3-0.3,4.9-0.8,7.1-0.8
		c-0.8-4.9,1.6-9.7,3.9-14c0.3-0.6,0.6-1.1,1.2-1.5c0.7-0.4,1.6-0.3,2.2,0.3c0.6,0.6,0.7,1.5,0.2,2.2c-2.4,3.8-3.9,8.2-4.2,12.7
		c2.2-3.4,4.5-6.8,6.7-10.2c1-1.6,2.1-3.1,3.5-4.3c1.4-1.2,3.3-2,5.1-1.8c1.8,0.2,3.6,1.7,3.7,3.6c0.1,1.3-0.6,2.5-1.4,3.6
		c-0.8,1.2-1.7,2.4-3,3.1c-1.3,0.6-3.1,0.5-4-0.7c-0.7,1.7-1,3.6-0.8,5.4c4.1,0,7.2-4.2,10.2-7.2c1.1-1.1,2.4-3,2.4-3
		s0.8-4.5,1.7-4.5c1.5,0,2.2,1,2.1,2.5c-0.1,1.5-0.7,2.8-0.8,4.3c1.8-2.1,3.5-4.2,5.3-6.3c1-1.1,2.4-2.4,3.8-1.8
		c0.9,0.4,1.2,1.6,1.1,2.6c-0.2,1-0.7,1.9-1.2,2.7c-1.6,3-2.5,6.3-2.6,9.7c1-1.7,2.2-3.6,3.4-5.1c0.5-0.6,0.9-1.2,1.3-1.8
		c1.9-2.4,3.7-2.4,5.3-2.4c1.9,0,3.9,1.1,5.6,2.6c2.1,2,3.4,4.6,4.4,7.2c1,2.6,1.4,5.4,1.3,8.3c-0.1,1.9-0.7,3.9-1.8,5.6
		c-1.1,1.7-2.8,3-4.9,3.4c-0.8,0.2-1.7,0.2-2.5,0.2c-0.9,0-1.8-0.2-2.6-0.5l-1.6-0.5c-0.3-0.1-0.5-0.5-0.3-0.9
		c0.1-0.3,0.5-0.5,0.9-0.3l1.6,0.5c0.6,0.3,1.4,0.4,2.1,0.4c0.8,0,1.6,0,2.2-0.2c1.7-0.3,3.1-1.4,4-2.8c1-1.4,1.5-3.2,1.6-4.9
		c0.1-2.7-0.3-5.4-1.2-7.8c-0.9-2.4-2.2-4.9-4.2-6.9c-1.1-1.1-2.7-2-4.3-2.2C138.1,93.9,136.7,94.1,135.7,95.6L135.7,95.6z
		 M50.6,92.6c1.2-2.3,1.5-3.3,3.3-6.3c1.6-2.7,1.8-3.1,2.7-4.3c0.2-0.3,0.6-0.5,0.9-0.4c0.5,0.2,1.1,0.3,1.5,0.7
		c0.4,0.4,0.4,1.4,0.1,1.8c-1.4,2.3-2.7,4.4-5.3,9.7c-2.6,5.3-4.8,11.4-6.5,17c-0.2,0.8-0.5,1.7-1,2.4c-0.5,0.7-1.4,1.2-2.2,1
		c-1-0.2-1.6-1.2-1.9-2.2c-1.1-2.8-2.7-9.1-2.9-12c-0.5-6.4,0.6-12.7,1.1-19.1c0.1-1.6,0.2-4.3,0.5-5.6c0.3-1.3,1.4-1.5,2.4-1.4
		c0.8,0.1,1.5,0.4,2,1.5c0.3,0.7,0.4,1.8,0.4,2.6c0.1,2.3-0.3,5.3-0.6,7.5c-0.8,5.8-2.2,10.4-0.3,20.4C46.1,102,50.2,93.3,50.6,92.6
		L50.6,92.6z M64.6,95.7c-0.2-0.2-0.5-0.1-0.7,0.1c-1.9,1.2-3.5,3-4.4,5.1c0,0.1-0.1,0.2,0,0.3c0.1,0.2,0.4,0.1,0.5,0
		c0.7-0.4,1.5-0.9,2.1-1.5c0.4-0.4,0.7-0.9,1-1.4L64.6,95.7L64.6,95.7L64.6,95.7z M109.1,96c0.6-0.4,1.3-0.8,1.8-1.3
		c0.4-0.4,0.7-0.9,1.1-1.5c0.4-0.7,0.8-1.3,1.3-2c0.1-0.1,0.1-0.2,0.1-0.3c-0.1-0.1-0.3-0.1-0.4,0c-1.9,1.1-3.4,2.9-4.3,4.9
		c-0.1,0.1,0.1,0.2,0.2,0.3C108.9,96.1,109,96.1,109.1,96L109.1,96z M124.8,93.9C124.8,93.9,124.9,93.9,124.8,93.9L124.8,93.9
		C124.9,93.9,124.8,93.9,124.8,93.9L124.8,93.9L124.8,93.9z M106.7,81.5c-1,1-2,1.7-3,4c-0.1,0.2-0.6,0.5-1.1,0.2
		c-0.4-0.3-0.6-0.5-1-0.8c-0.5-0.4-0.4-1.2-0.2-1.8c0.5-1.4,0.6-2,1-2.7c0.2-0.4,0.4-0.8,0.8-1.1c0.3-0.3,0.8-0.5,1.2-0.3
		c0.7,0.3,1.5,0.5,2.1,0.9C107.1,80.4,106.9,81.4,106.7,81.5L106.7,81.5z"/>
	<path class="st5" d="M118.3,114.4c0.6,0,1.3,0.1,1.9,0.1c0.1,0.6,0.5,1.1,1,1.2c0.6,0.1,1.3-0.3,1.5-0.9c1.2,0.2,2.4,0.4,3.6,0.7
		c2.8,0.6,5.4,1.5,8,2.5c-0.3,0.8-1.1,1.2-1.8,0.9c-0.3-0.1-0.6-0.3-0.8-0.6l0,0l0-0.1c-5-0.9-9.6-1.1-14.7,0.2
		c0.3-0.8,0.6-1.5,0.8-2.4C118,115.5,118.2,114.9,118.3,114.4L118.3,114.4z M118.3,108.8c4,1.4,12.9,6,14.3,7c0,0,0.1,0.1,0.1,0.1
		c0.3-0.1,0.5-0.1,0.8,0c0.6,0.2,1,0.9,1,1.5c-3.1-1.3-6.2-2.5-9.6-3.3c-0.7-0.2-1.4-0.3-2.1-0.4c-0.1-0.5-0.5-0.9-1-1
		c-0.6-0.1-1.1,0.2-1.4,0.7c-0.6-0.1-1.3-0.1-1.9-0.1C118.6,111.9,118.5,110.4,118.3,108.8L118.3,108.8z"/>
	
		<linearGradient id="SVGID_00000034776137907281405830000014798111635692063366_" gradientUnits="userSpaceOnUse" x1="33.301" y1="82.2137" x2="107.2346" y2="137.1316">
		<stop  offset="0" style="stop-color:#54912F"/>
		<stop  offset="0.5423" style="stop-color:#41782C"/>
		<stop  offset="0.8355" style="stop-color:#35682A"/>
	</linearGradient>
	<path style="fill-rule:evenodd;clip-rule:evenodd;fill:url(#SVGID_00000034776137907281405830000014798111635692063366_);" d="
		M114.8,118.4c0,0,0.6-1.3,1.1-2.7c0.2-0.7,0.3-1.4,0.5-2.2c0.4-2.5-0.3-4.8-0.4-4.9c0,0,0,0-0.1,0c-15.4-0.3-35,11.6-52.7,15.2
		c-7.7,1.6-15,1.4-21.2-2.8c-11.5-7.9-16.2-21.4-14.7-33.9c1.5-13,9.8-24.9,24-28.5c0.2,0,0.3-0.2,0.3-0.5c0-0.2-0.2-0.3-0.5-0.3
		c-15.1,3.2-24.1,15.4-26.3,28.9c-2.2,13.6,2.5,28.5,14.7,37.7c6.9,5.2,15.4,6,24.6,4.6c5.4-0.8,11-2.4,16.6-4
		C92.8,121.6,105,117.3,114.8,118.4L114.8,118.4z"/>
</g>
</svg>
