<svg xmlns="http://www.w3.org/2000/svg" xmlns:xlink="http://www.w3.org/1999/xlink" width="9.372" height="2553.904" viewBox="0 0 9.372 2553.904">
  <defs>
    <clipPath id="clip-path">
      <path id="Caminho_35" data-name="Caminho 35" d="M0,303.535H9.372v-501.9H0Z" transform="translate(0 198.369)" fill="#fff"/>
    </clipPath>
  </defs>
  <g id="Grupo_104" data-name="Grupo 104" transform="translate(-1537.129 -449.835)">
    <g id="Grupo_99" data-name="Grupo 99" transform="translate(1537.129 648.204)">
      <g id="Grupo_98" data-name="Grupo 98" transform="translate(0 -198.369)" clip-path="url(#clip-path)">
        <g id="Grupo_74" data-name="Grupo 74" transform="translate(0 341.793)">
          <path id="Caminho_11" data-name="Caminho 11" d="M0,3.2c0,2.92,2.1,5.288,4.686,5.288S9.372,6.118,9.372,3.2,7.274-2.09,4.686-2.09,0,.278,0,3.2" transform="translate(0 2.09)" fill="#fff"/>
        </g>
        <g id="Grupo_75" data-name="Grupo 75" transform="translate(0 427.241)">
          <path id="Caminho_12" data-name="Caminho 12" d="M0,3.2c0,2.92,2.1,5.288,4.686,5.288S9.372,6.118,9.372,3.2,7.274-2.09,4.686-2.09,0,.278,0,3.2" transform="translate(0 2.09)" fill="#fff"/>
        </g>
        <g id="Grupo_76" data-name="Grupo 76" transform="translate(0 234.983)">
          <path id="Caminho_13" data-name="Caminho 13" d="M0,3.2c0,2.92,2.1,5.288,4.686,5.288S9.372,6.118,9.372,3.2,7.274-2.09,4.686-2.09,0,.278,0,3.2" transform="translate(0 2.09)" fill="#fff"/>
        </g>
        <g id="Grupo_77" data-name="Grupo 77" transform="translate(0 128.173)">
          <path id="Caminho_14" data-name="Caminho 14" d="M0,3.2c0,2.92,2.1,5.288,4.686,5.288S9.372,6.118,9.372,3.2,7.274-2.09,4.686-2.09,0,.278,0,3.2" transform="translate(0 2.09)" fill="#fff"/>
        </g>
        <g id="Grupo_78" data-name="Grupo 78" transform="translate(0 21.364)">
          <path id="Caminho_15" data-name="Caminho 15" d="M0,3.2c0,2.92,2.1,5.288,4.686,5.288S9.372,6.118,9.372,3.2,7.274-2.09,4.686-2.09,0,.278,0,3.2" transform="translate(0 2.09)" fill="#fff"/>
        </g>
        <g id="Grupo_79" data-name="Grupo 79" transform="translate(0 320.431)">
          <path id="Caminho_16" data-name="Caminho 16" d="M0,3.2c0,2.92,2.1,5.288,4.686,5.288S9.372,6.118,9.372,3.2,7.274-2.09,4.686-2.09,0,.278,0,3.2" transform="translate(0 2.09)" fill="#fff"/>
        </g>
        <g id="Grupo_80" data-name="Grupo 80" transform="translate(0 213.621)">
          <path id="Caminho_17" data-name="Caminho 17" d="M0,3.2c0,2.92,2.1,5.288,4.686,5.288S9.372,6.118,9.372,3.2,7.274-2.09,4.686-2.09,0,.278,0,3.2" transform="translate(0 2.09)" fill="#fff"/>
        </g>
        <g id="Grupo_81" data-name="Grupo 81" transform="translate(0 106.811)">
          <path id="Caminho_18" data-name="Caminho 18" d="M0,3.2c0,2.92,2.1,5.288,4.686,5.288S9.372,6.118,9.372,3.2,7.274-2.09,4.686-2.09,0,.278,0,3.2" transform="translate(0 2.09)" fill="#fff"/>
        </g>
        <g id="Grupo_82" data-name="Grupo 82" transform="translate(0 0.002)">
          <path id="Caminho_19" data-name="Caminho 19" d="M0,3.2c0,2.92,2.1,5.288,4.686,5.288S9.372,6.118,9.372,3.2,7.274-2.09,4.686-2.09,0,.278,0,3.2" transform="translate(0 2.09)" fill="#fff"/>
        </g>
        <g id="Grupo_83" data-name="Grupo 83" transform="translate(0 363.155)">
          <path id="Caminho_20" data-name="Caminho 20" d="M0,3.2c0,2.92,2.1,5.288,4.686,5.288S9.372,6.118,9.372,3.2,7.274-2.09,4.686-2.09,0,.278,0,3.2" transform="translate(0 2.09)" fill="#fff"/>
        </g>
        <g id="Grupo_84" data-name="Grupo 84" transform="translate(0 448.603)">
          <path id="Caminho_21" data-name="Caminho 21" d="M0,3.2c0,2.92,2.1,5.288,4.686,5.288S9.372,6.118,9.372,3.2,7.274-2.09,4.686-2.09,0,.278,0,3.2" transform="translate(0 2.09)" fill="#fff"/>
        </g>
        <g id="Grupo_85" data-name="Grupo 85" transform="translate(0 256.345)">
          <path id="Caminho_22" data-name="Caminho 22" d="M0,3.2c0,2.92,2.1,5.288,4.686,5.288S9.372,6.118,9.372,3.2,7.274-2.09,4.686-2.09,0,.278,0,3.2" transform="translate(0 2.09)" fill="#fff"/>
        </g>
        <g id="Grupo_86" data-name="Grupo 86" transform="translate(0 149.535)">
          <path id="Caminho_23" data-name="Caminho 23" d="M0,3.2c0,2.92,2.1,5.288,4.686,5.288S9.372,6.118,9.372,3.2,7.274-2.09,4.686-2.09,0,.278,0,3.2" transform="translate(0 2.09)" fill="#fff"/>
        </g>
        <g id="Grupo_87" data-name="Grupo 87" transform="translate(0 42.725)">
          <path id="Caminho_24" data-name="Caminho 24" d="M0,3.2c0,2.92,2.1,5.288,4.686,5.288S9.372,6.118,9.372,3.2,7.274-2.09,4.686-2.09,0,.278,0,3.2" transform="translate(0 2.09)" fill="#fff"/>
        </g>
        <g id="Grupo_88" data-name="Grupo 88" transform="translate(0 405.879)">
          <path id="Caminho_25" data-name="Caminho 25" d="M0,3.2c0,2.92,2.1,5.288,4.686,5.288S9.372,6.118,9.372,3.2,7.274-2.09,4.686-2.09,0,.278,0,3.2" transform="translate(0 2.09)" fill="#fff"/>
        </g>
        <g id="Grupo_89" data-name="Grupo 89" transform="translate(0 491.327)">
          <path id="Caminho_26" data-name="Caminho 26" d="M0,3.2c0,2.92,2.1,5.288,4.686,5.288S9.372,6.118,9.372,3.2,7.274-2.09,4.686-2.09,0,.278,0,3.2" transform="translate(0 2.09)" fill="#fff"/>
        </g>
        <g id="Grupo_90" data-name="Grupo 90" transform="translate(0 299.069)">
          <path id="Caminho_27" data-name="Caminho 27" d="M0,3.2c0,2.92,2.1,5.288,4.686,5.288S9.372,6.118,9.372,3.2,7.274-2.09,4.686-2.09,0,.278,0,3.2" transform="translate(0 2.09)" fill="#fff"/>
        </g>
        <g id="Grupo_91" data-name="Grupo 91" transform="translate(0 192.259)">
          <path id="Caminho_28" data-name="Caminho 28" d="M0,3.2c0,2.92,2.1,5.288,4.686,5.288S9.372,6.118,9.372,3.2,7.274-2.09,4.686-2.09,0,.278,0,3.2" transform="translate(0 2.09)" fill="#fff"/>
        </g>
        <g id="Grupo_92" data-name="Grupo 92" transform="translate(0 85.449)">
          <path id="Caminho_29" data-name="Caminho 29" d="M0,3.2c0,2.92,2.1,5.288,4.686,5.288S9.372,6.118,9.372,3.2,7.274-2.09,4.686-2.09,0,.278,0,3.2" transform="translate(0 2.09)" fill="#fff"/>
        </g>
        <g id="Grupo_93" data-name="Grupo 93" transform="translate(0 384.517)">
          <path id="Caminho_30" data-name="Caminho 30" d="M0,3.2c0,2.92,2.1,5.288,4.686,5.288S9.372,6.118,9.372,3.2,7.274-2.09,4.686-2.09,0,.278,0,3.2" transform="translate(0 2.09)" fill="#fff"/>
        </g>
        <g id="Grupo_94" data-name="Grupo 94" transform="translate(0 469.965)">
          <path id="Caminho_31" data-name="Caminho 31" d="M0,3.2c0,2.92,2.1,5.288,4.686,5.288S9.372,6.118,9.372,3.2,7.274-2.09,4.686-2.09,0,.278,0,3.2" transform="translate(0 2.09)" fill="#fff"/>
        </g>
        <g id="Grupo_95" data-name="Grupo 95" transform="translate(0 277.707)">
          <path id="Caminho_32" data-name="Caminho 32" d="M0,3.2c0,2.92,2.1,5.288,4.686,5.288S9.372,6.118,9.372,3.2,7.274-2.09,4.686-2.09,0,.278,0,3.2" transform="translate(0 2.09)" fill="#fff"/>
        </g>
        <g id="Grupo_96" data-name="Grupo 96" transform="translate(0 170.897)">
          <path id="Caminho_33" data-name="Caminho 33" d="M0,3.2c0,2.92,2.1,5.288,4.686,5.288S9.372,6.118,9.372,3.2,7.274-2.09,4.686-2.09,0,.278,0,3.2" transform="translate(0 2.09)" fill="#fff"/>
        </g>
        <g id="Grupo_97" data-name="Grupo 97" transform="translate(0 64.088)">
          <path id="Caminho_34" data-name="Caminho 34" d="M0,3.2c0,2.92,2.1,5.288,4.686,5.288S9.372,6.118,9.372,3.2,7.274-2.09,4.686-2.09,0,.278,0,3.2" transform="translate(0 2.09)" fill="#fff"/>
        </g>
      </g>
    </g>
    <g id="Grupo_100" data-name="Grupo 100" transform="translate(1537.129 1161.204)">
      <g id="Grupo_98-2" data-name="Grupo 98" transform="translate(0 -198.369)" clip-path="url(#clip-path)">
        <g id="Grupo_74-2" data-name="Grupo 74" transform="translate(0 341.793)">
          <path id="Caminho_11-2" data-name="Caminho 11" d="M0,3.2c0,2.92,2.1,5.288,4.686,5.288S9.372,6.118,9.372,3.2,7.274-2.09,4.686-2.09,0,.278,0,3.2" transform="translate(0 2.09)" fill="#fff"/>
        </g>
        <g id="Grupo_75-2" data-name="Grupo 75" transform="translate(0 427.241)">
          <path id="Caminho_12-2" data-name="Caminho 12" d="M0,3.2c0,2.92,2.1,5.288,4.686,5.288S9.372,6.118,9.372,3.2,7.274-2.09,4.686-2.09,0,.278,0,3.2" transform="translate(0 2.09)" fill="#fff"/>
        </g>
        <g id="Grupo_76-2" data-name="Grupo 76" transform="translate(0 234.983)">
          <path id="Caminho_13-2" data-name="Caminho 13" d="M0,3.2c0,2.92,2.1,5.288,4.686,5.288S9.372,6.118,9.372,3.2,7.274-2.09,4.686-2.09,0,.278,0,3.2" transform="translate(0 2.09)" fill="#fff"/>
        </g>
        <g id="Grupo_77-2" data-name="Grupo 77" transform="translate(0 128.173)">
          <path id="Caminho_14-2" data-name="Caminho 14" d="M0,3.2c0,2.92,2.1,5.288,4.686,5.288S9.372,6.118,9.372,3.2,7.274-2.09,4.686-2.09,0,.278,0,3.2" transform="translate(0 2.09)" fill="#fff"/>
        </g>
        <g id="Grupo_78-2" data-name="Grupo 78" transform="translate(0 21.364)">
          <path id="Caminho_15-2" data-name="Caminho 15" d="M0,3.2c0,2.92,2.1,5.288,4.686,5.288S9.372,6.118,9.372,3.2,7.274-2.09,4.686-2.09,0,.278,0,3.2" transform="translate(0 2.09)" fill="#fff"/>
        </g>
        <g id="Grupo_79-2" data-name="Grupo 79" transform="translate(0 320.431)">
          <path id="Caminho_16-2" data-name="Caminho 16" d="M0,3.2c0,2.92,2.1,5.288,4.686,5.288S9.372,6.118,9.372,3.2,7.274-2.09,4.686-2.09,0,.278,0,3.2" transform="translate(0 2.09)" fill="#fff"/>
        </g>
        <g id="Grupo_80-2" data-name="Grupo 80" transform="translate(0 213.621)">
          <path id="Caminho_17-2" data-name="Caminho 17" d="M0,3.2c0,2.92,2.1,5.288,4.686,5.288S9.372,6.118,9.372,3.2,7.274-2.09,4.686-2.09,0,.278,0,3.2" transform="translate(0 2.09)" fill="#fff"/>
        </g>
        <g id="Grupo_81-2" data-name="Grupo 81" transform="translate(0 106.811)">
          <path id="Caminho_18-2" data-name="Caminho 18" d="M0,3.2c0,2.92,2.1,5.288,4.686,5.288S9.372,6.118,9.372,3.2,7.274-2.09,4.686-2.09,0,.278,0,3.2" transform="translate(0 2.09)" fill="#fff"/>
        </g>
        <g id="Grupo_82-2" data-name="Grupo 82" transform="translate(0 0.002)">
          <path id="Caminho_19-2" data-name="Caminho 19" d="M0,3.2c0,2.92,2.1,5.288,4.686,5.288S9.372,6.118,9.372,3.2,7.274-2.09,4.686-2.09,0,.278,0,3.2" transform="translate(0 2.09)" fill="#fff"/>
        </g>
        <g id="Grupo_83-2" data-name="Grupo 83" transform="translate(0 363.155)">
          <path id="Caminho_20-2" data-name="Caminho 20" d="M0,3.2c0,2.92,2.1,5.288,4.686,5.288S9.372,6.118,9.372,3.2,7.274-2.09,4.686-2.09,0,.278,0,3.2" transform="translate(0 2.09)" fill="#fff"/>
        </g>
        <g id="Grupo_84-2" data-name="Grupo 84" transform="translate(0 448.603)">
          <path id="Caminho_21-2" data-name="Caminho 21" d="M0,3.2c0,2.92,2.1,5.288,4.686,5.288S9.372,6.118,9.372,3.2,7.274-2.09,4.686-2.09,0,.278,0,3.2" transform="translate(0 2.09)" fill="#fff"/>
        </g>
        <g id="Grupo_85-2" data-name="Grupo 85" transform="translate(0 256.345)">
          <path id="Caminho_22-2" data-name="Caminho 22" d="M0,3.2c0,2.92,2.1,5.288,4.686,5.288S9.372,6.118,9.372,3.2,7.274-2.09,4.686-2.09,0,.278,0,3.2" transform="translate(0 2.09)" fill="#fff"/>
        </g>
        <g id="Grupo_86-2" data-name="Grupo 86" transform="translate(0 149.535)">
          <path id="Caminho_23-2" data-name="Caminho 23" d="M0,3.2c0,2.92,2.1,5.288,4.686,5.288S9.372,6.118,9.372,3.2,7.274-2.09,4.686-2.09,0,.278,0,3.2" transform="translate(0 2.09)" fill="#fff"/>
        </g>
        <g id="Grupo_87-2" data-name="Grupo 87" transform="translate(0 42.725)">
          <path id="Caminho_24-2" data-name="Caminho 24" d="M0,3.2c0,2.92,2.1,5.288,4.686,5.288S9.372,6.118,9.372,3.2,7.274-2.09,4.686-2.09,0,.278,0,3.2" transform="translate(0 2.09)" fill="#fff"/>
        </g>
        <g id="Grupo_88-2" data-name="Grupo 88" transform="translate(0 405.879)">
          <path id="Caminho_25-2" data-name="Caminho 25" d="M0,3.2c0,2.92,2.1,5.288,4.686,5.288S9.372,6.118,9.372,3.2,7.274-2.09,4.686-2.09,0,.278,0,3.2" transform="translate(0 2.09)" fill="#fff"/>
        </g>
        <g id="Grupo_89-2" data-name="Grupo 89" transform="translate(0 491.327)">
          <path id="Caminho_26-2" data-name="Caminho 26" d="M0,3.2c0,2.92,2.1,5.288,4.686,5.288S9.372,6.118,9.372,3.2,7.274-2.09,4.686-2.09,0,.278,0,3.2" transform="translate(0 2.09)" fill="#fff"/>
        </g>
        <g id="Grupo_90-2" data-name="Grupo 90" transform="translate(0 299.069)">
          <path id="Caminho_27-2" data-name="Caminho 27" d="M0,3.2c0,2.92,2.1,5.288,4.686,5.288S9.372,6.118,9.372,3.2,7.274-2.09,4.686-2.09,0,.278,0,3.2" transform="translate(0 2.09)" fill="#fff"/>
        </g>
        <g id="Grupo_91-2" data-name="Grupo 91" transform="translate(0 192.259)">
          <path id="Caminho_28-2" data-name="Caminho 28" d="M0,3.2c0,2.92,2.1,5.288,4.686,5.288S9.372,6.118,9.372,3.2,7.274-2.09,4.686-2.09,0,.278,0,3.2" transform="translate(0 2.09)" fill="#fff"/>
        </g>
        <g id="Grupo_92-2" data-name="Grupo 92" transform="translate(0 85.449)">
          <path id="Caminho_29-2" data-name="Caminho 29" d="M0,3.2c0,2.92,2.1,5.288,4.686,5.288S9.372,6.118,9.372,3.2,7.274-2.09,4.686-2.09,0,.278,0,3.2" transform="translate(0 2.09)" fill="#fff"/>
        </g>
        <g id="Grupo_93-2" data-name="Grupo 93" transform="translate(0 384.517)">
          <path id="Caminho_30-2" data-name="Caminho 30" d="M0,3.2c0,2.92,2.1,5.288,4.686,5.288S9.372,6.118,9.372,3.2,7.274-2.09,4.686-2.09,0,.278,0,3.2" transform="translate(0 2.09)" fill="#fff"/>
        </g>
        <g id="Grupo_94-2" data-name="Grupo 94" transform="translate(0 469.965)">
          <path id="Caminho_31-2" data-name="Caminho 31" d="M0,3.2c0,2.92,2.1,5.288,4.686,5.288S9.372,6.118,9.372,3.2,7.274-2.09,4.686-2.09,0,.278,0,3.2" transform="translate(0 2.09)" fill="#fff"/>
        </g>
        <g id="Grupo_95-2" data-name="Grupo 95" transform="translate(0 277.707)">
          <path id="Caminho_32-2" data-name="Caminho 32" d="M0,3.2c0,2.92,2.1,5.288,4.686,5.288S9.372,6.118,9.372,3.2,7.274-2.09,4.686-2.09,0,.278,0,3.2" transform="translate(0 2.09)" fill="#fff"/>
        </g>
        <g id="Grupo_96-2" data-name="Grupo 96" transform="translate(0 170.897)">
          <path id="Caminho_33-2" data-name="Caminho 33" d="M0,3.2c0,2.92,2.1,5.288,4.686,5.288S9.372,6.118,9.372,3.2,7.274-2.09,4.686-2.09,0,.278,0,3.2" transform="translate(0 2.09)" fill="#fff"/>
        </g>
        <g id="Grupo_97-2" data-name="Grupo 97" transform="translate(0 64.088)">
          <path id="Caminho_34-2" data-name="Caminho 34" d="M0,3.2c0,2.92,2.1,5.288,4.686,5.288S9.372,6.118,9.372,3.2,7.274-2.09,4.686-2.09,0,.278,0,3.2" transform="translate(0 2.09)" fill="#fff"/>
        </g>
      </g>
    </g>
    <g id="Grupo_101" data-name="Grupo 101" transform="translate(1537.129 1674.204)">
      <g id="Grupo_98-3" data-name="Grupo 98" transform="translate(0 -198.369)" clip-path="url(#clip-path)">
        <g id="Grupo_74-3" data-name="Grupo 74" transform="translate(0 341.793)">
          <path id="Caminho_11-3" data-name="Caminho 11" d="M0,3.2c0,2.92,2.1,5.288,4.686,5.288S9.372,6.118,9.372,3.2,7.274-2.09,4.686-2.09,0,.278,0,3.2" transform="translate(0 2.09)" fill="#fff"/>
        </g>
        <g id="Grupo_75-3" data-name="Grupo 75" transform="translate(0 427.241)">
          <path id="Caminho_12-3" data-name="Caminho 12" d="M0,3.2c0,2.92,2.1,5.288,4.686,5.288S9.372,6.118,9.372,3.2,7.274-2.09,4.686-2.09,0,.278,0,3.2" transform="translate(0 2.09)" fill="#fff"/>
        </g>
        <g id="Grupo_76-3" data-name="Grupo 76" transform="translate(0 234.983)">
          <path id="Caminho_13-3" data-name="Caminho 13" d="M0,3.2c0,2.92,2.1,5.288,4.686,5.288S9.372,6.118,9.372,3.2,7.274-2.09,4.686-2.09,0,.278,0,3.2" transform="translate(0 2.09)" fill="#fff"/>
        </g>
        <g id="Grupo_77-3" data-name="Grupo 77" transform="translate(0 128.173)">
          <path id="Caminho_14-3" data-name="Caminho 14" d="M0,3.2c0,2.92,2.1,5.288,4.686,5.288S9.372,6.118,9.372,3.2,7.274-2.09,4.686-2.09,0,.278,0,3.2" transform="translate(0 2.09)" fill="#fff"/>
        </g>
        <g id="Grupo_78-3" data-name="Grupo 78" transform="translate(0 21.364)">
          <path id="Caminho_15-3" data-name="Caminho 15" d="M0,3.2c0,2.92,2.1,5.288,4.686,5.288S9.372,6.118,9.372,3.2,7.274-2.09,4.686-2.09,0,.278,0,3.2" transform="translate(0 2.09)" fill="#fff"/>
        </g>
        <g id="Grupo_79-3" data-name="Grupo 79" transform="translate(0 320.431)">
          <path id="Caminho_16-3" data-name="Caminho 16" d="M0,3.2c0,2.92,2.1,5.288,4.686,5.288S9.372,6.118,9.372,3.2,7.274-2.09,4.686-2.09,0,.278,0,3.2" transform="translate(0 2.09)" fill="#fff"/>
        </g>
        <g id="Grupo_80-3" data-name="Grupo 80" transform="translate(0 213.621)">
          <path id="Caminho_17-3" data-name="Caminho 17" d="M0,3.2c0,2.92,2.1,5.288,4.686,5.288S9.372,6.118,9.372,3.2,7.274-2.09,4.686-2.09,0,.278,0,3.2" transform="translate(0 2.09)" fill="#fff"/>
        </g>
        <g id="Grupo_81-3" data-name="Grupo 81" transform="translate(0 106.811)">
          <path id="Caminho_18-3" data-name="Caminho 18" d="M0,3.2c0,2.92,2.1,5.288,4.686,5.288S9.372,6.118,9.372,3.2,7.274-2.09,4.686-2.09,0,.278,0,3.2" transform="translate(0 2.09)" fill="#fff"/>
        </g>
        <g id="Grupo_82-3" data-name="Grupo 82" transform="translate(0 0.002)">
          <path id="Caminho_19-3" data-name="Caminho 19" d="M0,3.2c0,2.92,2.1,5.288,4.686,5.288S9.372,6.118,9.372,3.2,7.274-2.09,4.686-2.09,0,.278,0,3.2" transform="translate(0 2.09)" fill="#fff"/>
        </g>
        <g id="Grupo_83-3" data-name="Grupo 83" transform="translate(0 363.155)">
          <path id="Caminho_20-3" data-name="Caminho 20" d="M0,3.2c0,2.92,2.1,5.288,4.686,5.288S9.372,6.118,9.372,3.2,7.274-2.09,4.686-2.09,0,.278,0,3.2" transform="translate(0 2.09)" fill="#fff"/>
        </g>
        <g id="Grupo_84-3" data-name="Grupo 84" transform="translate(0 448.603)">
          <path id="Caminho_21-3" data-name="Caminho 21" d="M0,3.2c0,2.92,2.1,5.288,4.686,5.288S9.372,6.118,9.372,3.2,7.274-2.09,4.686-2.09,0,.278,0,3.2" transform="translate(0 2.09)" fill="#fff"/>
        </g>
        <g id="Grupo_85-3" data-name="Grupo 85" transform="translate(0 256.345)">
          <path id="Caminho_22-3" data-name="Caminho 22" d="M0,3.2c0,2.92,2.1,5.288,4.686,5.288S9.372,6.118,9.372,3.2,7.274-2.09,4.686-2.09,0,.278,0,3.2" transform="translate(0 2.09)" fill="#fff"/>
        </g>
        <g id="Grupo_86-3" data-name="Grupo 86" transform="translate(0 149.535)">
          <path id="Caminho_23-3" data-name="Caminho 23" d="M0,3.2c0,2.92,2.1,5.288,4.686,5.288S9.372,6.118,9.372,3.2,7.274-2.09,4.686-2.09,0,.278,0,3.2" transform="translate(0 2.09)" fill="#fff"/>
        </g>
        <g id="Grupo_87-3" data-name="Grupo 87" transform="translate(0 42.725)">
          <path id="Caminho_24-3" data-name="Caminho 24" d="M0,3.2c0,2.92,2.1,5.288,4.686,5.288S9.372,6.118,9.372,3.2,7.274-2.09,4.686-2.09,0,.278,0,3.2" transform="translate(0 2.09)" fill="#fff"/>
        </g>
        <g id="Grupo_88-3" data-name="Grupo 88" transform="translate(0 405.879)">
          <path id="Caminho_25-3" data-name="Caminho 25" d="M0,3.2c0,2.92,2.1,5.288,4.686,5.288S9.372,6.118,9.372,3.2,7.274-2.09,4.686-2.09,0,.278,0,3.2" transform="translate(0 2.09)" fill="#fff"/>
        </g>
        <g id="Grupo_89-3" data-name="Grupo 89" transform="translate(0 491.327)">
          <path id="Caminho_26-3" data-name="Caminho 26" d="M0,3.2c0,2.92,2.1,5.288,4.686,5.288S9.372,6.118,9.372,3.2,7.274-2.09,4.686-2.09,0,.278,0,3.2" transform="translate(0 2.09)" fill="#fff"/>
        </g>
        <g id="Grupo_90-3" data-name="Grupo 90" transform="translate(0 299.069)">
          <path id="Caminho_27-3" data-name="Caminho 27" d="M0,3.2c0,2.92,2.1,5.288,4.686,5.288S9.372,6.118,9.372,3.2,7.274-2.09,4.686-2.09,0,.278,0,3.2" transform="translate(0 2.09)" fill="#fff"/>
        </g>
        <g id="Grupo_91-3" data-name="Grupo 91" transform="translate(0 192.259)">
          <path id="Caminho_28-3" data-name="Caminho 28" d="M0,3.2c0,2.92,2.1,5.288,4.686,5.288S9.372,6.118,9.372,3.2,7.274-2.09,4.686-2.09,0,.278,0,3.2" transform="translate(0 2.09)" fill="#fff"/>
        </g>
        <g id="Grupo_92-3" data-name="Grupo 92" transform="translate(0 85.449)">
          <path id="Caminho_29-3" data-name="Caminho 29" d="M0,3.2c0,2.92,2.1,5.288,4.686,5.288S9.372,6.118,9.372,3.2,7.274-2.09,4.686-2.09,0,.278,0,3.2" transform="translate(0 2.09)" fill="#fff"/>
        </g>
        <g id="Grupo_93-3" data-name="Grupo 93" transform="translate(0 384.517)">
          <path id="Caminho_30-3" data-name="Caminho 30" d="M0,3.2c0,2.92,2.1,5.288,4.686,5.288S9.372,6.118,9.372,3.2,7.274-2.09,4.686-2.09,0,.278,0,3.2" transform="translate(0 2.09)" fill="#fff"/>
        </g>
        <g id="Grupo_94-3" data-name="Grupo 94" transform="translate(0 469.965)">
          <path id="Caminho_31-3" data-name="Caminho 31" d="M0,3.2c0,2.92,2.1,5.288,4.686,5.288S9.372,6.118,9.372,3.2,7.274-2.09,4.686-2.09,0,.278,0,3.2" transform="translate(0 2.09)" fill="#fff"/>
        </g>
        <g id="Grupo_95-3" data-name="Grupo 95" transform="translate(0 277.707)">
          <path id="Caminho_32-3" data-name="Caminho 32" d="M0,3.2c0,2.92,2.1,5.288,4.686,5.288S9.372,6.118,9.372,3.2,7.274-2.09,4.686-2.09,0,.278,0,3.2" transform="translate(0 2.09)" fill="#fff"/>
        </g>
        <g id="Grupo_96-3" data-name="Grupo 96" transform="translate(0 170.897)">
          <path id="Caminho_33-3" data-name="Caminho 33" d="M0,3.2c0,2.92,2.1,5.288,4.686,5.288S9.372,6.118,9.372,3.2,7.274-2.09,4.686-2.09,0,.278,0,3.2" transform="translate(0 2.09)" fill="#fff"/>
        </g>
        <g id="Grupo_97-3" data-name="Grupo 97" transform="translate(0 64.088)">
          <path id="Caminho_34-3" data-name="Caminho 34" d="M0,3.2c0,2.92,2.1,5.288,4.686,5.288S9.372,6.118,9.372,3.2,7.274-2.09,4.686-2.09,0,.278,0,3.2" transform="translate(0 2.09)" fill="#fff"/>
        </g>
      </g>
    </g>
    <g id="Grupo_102" data-name="Grupo 102" transform="translate(1537.129 2187.204)">
      <g id="Grupo_98-4" data-name="Grupo 98" transform="translate(0 -198.369)" clip-path="url(#clip-path)">
        <g id="Grupo_74-4" data-name="Grupo 74" transform="translate(0 341.793)">
          <path id="Caminho_11-4" data-name="Caminho 11" d="M0,3.2c0,2.92,2.1,5.288,4.686,5.288S9.372,6.118,9.372,3.2,7.274-2.09,4.686-2.09,0,.278,0,3.2" transform="translate(0 2.09)" fill="#fff"/>
        </g>
        <g id="Grupo_75-4" data-name="Grupo 75" transform="translate(0 427.241)">
          <path id="Caminho_12-4" data-name="Caminho 12" d="M0,3.2c0,2.92,2.1,5.288,4.686,5.288S9.372,6.118,9.372,3.2,7.274-2.09,4.686-2.09,0,.278,0,3.2" transform="translate(0 2.09)" fill="#fff"/>
        </g>
        <g id="Grupo_76-4" data-name="Grupo 76" transform="translate(0 234.983)">
          <path id="Caminho_13-4" data-name="Caminho 13" d="M0,3.2c0,2.92,2.1,5.288,4.686,5.288S9.372,6.118,9.372,3.2,7.274-2.09,4.686-2.09,0,.278,0,3.2" transform="translate(0 2.09)" fill="#fff"/>
        </g>
        <g id="Grupo_77-4" data-name="Grupo 77" transform="translate(0 128.173)">
          <path id="Caminho_14-4" data-name="Caminho 14" d="M0,3.2c0,2.92,2.1,5.288,4.686,5.288S9.372,6.118,9.372,3.2,7.274-2.09,4.686-2.09,0,.278,0,3.2" transform="translate(0 2.09)" fill="#fff"/>
        </g>
        <g id="Grupo_78-4" data-name="Grupo 78" transform="translate(0 21.364)">
          <path id="Caminho_15-4" data-name="Caminho 15" d="M0,3.2c0,2.92,2.1,5.288,4.686,5.288S9.372,6.118,9.372,3.2,7.274-2.09,4.686-2.09,0,.278,0,3.2" transform="translate(0 2.09)" fill="#fff"/>
        </g>
        <g id="Grupo_79-4" data-name="Grupo 79" transform="translate(0 320.431)">
          <path id="Caminho_16-4" data-name="Caminho 16" d="M0,3.2c0,2.92,2.1,5.288,4.686,5.288S9.372,6.118,9.372,3.2,7.274-2.09,4.686-2.09,0,.278,0,3.2" transform="translate(0 2.09)" fill="#fff"/>
        </g>
        <g id="Grupo_80-4" data-name="Grupo 80" transform="translate(0 213.621)">
          <path id="Caminho_17-4" data-name="Caminho 17" d="M0,3.2c0,2.92,2.1,5.288,4.686,5.288S9.372,6.118,9.372,3.2,7.274-2.09,4.686-2.09,0,.278,0,3.2" transform="translate(0 2.09)" fill="#fff"/>
        </g>
        <g id="Grupo_81-4" data-name="Grupo 81" transform="translate(0 106.811)">
          <path id="Caminho_18-4" data-name="Caminho 18" d="M0,3.2c0,2.92,2.1,5.288,4.686,5.288S9.372,6.118,9.372,3.2,7.274-2.09,4.686-2.09,0,.278,0,3.2" transform="translate(0 2.09)" fill="#fff"/>
        </g>
        <g id="Grupo_82-4" data-name="Grupo 82" transform="translate(0 0.002)">
          <path id="Caminho_19-4" data-name="Caminho 19" d="M0,3.2c0,2.92,2.1,5.288,4.686,5.288S9.372,6.118,9.372,3.2,7.274-2.09,4.686-2.09,0,.278,0,3.2" transform="translate(0 2.09)" fill="#fff"/>
        </g>
        <g id="Grupo_83-4" data-name="Grupo 83" transform="translate(0 363.155)">
          <path id="Caminho_20-4" data-name="Caminho 20" d="M0,3.2c0,2.92,2.1,5.288,4.686,5.288S9.372,6.118,9.372,3.2,7.274-2.09,4.686-2.09,0,.278,0,3.2" transform="translate(0 2.09)" fill="#fff"/>
        </g>
        <g id="Grupo_84-4" data-name="Grupo 84" transform="translate(0 448.603)">
          <path id="Caminho_21-4" data-name="Caminho 21" d="M0,3.2c0,2.92,2.1,5.288,4.686,5.288S9.372,6.118,9.372,3.2,7.274-2.09,4.686-2.09,0,.278,0,3.2" transform="translate(0 2.09)" fill="#fff"/>
        </g>
        <g id="Grupo_85-4" data-name="Grupo 85" transform="translate(0 256.345)">
          <path id="Caminho_22-4" data-name="Caminho 22" d="M0,3.2c0,2.92,2.1,5.288,4.686,5.288S9.372,6.118,9.372,3.2,7.274-2.09,4.686-2.09,0,.278,0,3.2" transform="translate(0 2.09)" fill="#fff"/>
        </g>
        <g id="Grupo_86-4" data-name="Grupo 86" transform="translate(0 149.535)">
          <path id="Caminho_23-4" data-name="Caminho 23" d="M0,3.2c0,2.92,2.1,5.288,4.686,5.288S9.372,6.118,9.372,3.2,7.274-2.09,4.686-2.09,0,.278,0,3.2" transform="translate(0 2.09)" fill="#fff"/>
        </g>
        <g id="Grupo_87-4" data-name="Grupo 87" transform="translate(0 42.725)">
          <path id="Caminho_24-4" data-name="Caminho 24" d="M0,3.2c0,2.92,2.1,5.288,4.686,5.288S9.372,6.118,9.372,3.2,7.274-2.09,4.686-2.09,0,.278,0,3.2" transform="translate(0 2.09)" fill="#fff"/>
        </g>
        <g id="Grupo_88-4" data-name="Grupo 88" transform="translate(0 405.879)">
          <path id="Caminho_25-4" data-name="Caminho 25" d="M0,3.2c0,2.92,2.1,5.288,4.686,5.288S9.372,6.118,9.372,3.2,7.274-2.09,4.686-2.09,0,.278,0,3.2" transform="translate(0 2.09)" fill="#fff"/>
        </g>
        <g id="Grupo_89-4" data-name="Grupo 89" transform="translate(0 491.327)">
          <path id="Caminho_26-4" data-name="Caminho 26" d="M0,3.2c0,2.92,2.1,5.288,4.686,5.288S9.372,6.118,9.372,3.2,7.274-2.09,4.686-2.09,0,.278,0,3.2" transform="translate(0 2.09)" fill="#fff"/>
        </g>
        <g id="Grupo_90-4" data-name="Grupo 90" transform="translate(0 299.069)">
          <path id="Caminho_27-4" data-name="Caminho 27" d="M0,3.2c0,2.92,2.1,5.288,4.686,5.288S9.372,6.118,9.372,3.2,7.274-2.09,4.686-2.09,0,.278,0,3.2" transform="translate(0 2.09)" fill="#fff"/>
        </g>
        <g id="Grupo_91-4" data-name="Grupo 91" transform="translate(0 192.259)">
          <path id="Caminho_28-4" data-name="Caminho 28" d="M0,3.2c0,2.92,2.1,5.288,4.686,5.288S9.372,6.118,9.372,3.2,7.274-2.09,4.686-2.09,0,.278,0,3.2" transform="translate(0 2.09)" fill="#fff"/>
        </g>
        <g id="Grupo_92-4" data-name="Grupo 92" transform="translate(0 85.449)">
          <path id="Caminho_29-4" data-name="Caminho 29" d="M0,3.2c0,2.92,2.1,5.288,4.686,5.288S9.372,6.118,9.372,3.2,7.274-2.09,4.686-2.09,0,.278,0,3.2" transform="translate(0 2.09)" fill="#fff"/>
        </g>
        <g id="Grupo_93-4" data-name="Grupo 93" transform="translate(0 384.517)">
          <path id="Caminho_30-4" data-name="Caminho 30" d="M0,3.2c0,2.92,2.1,5.288,4.686,5.288S9.372,6.118,9.372,3.2,7.274-2.09,4.686-2.09,0,.278,0,3.2" transform="translate(0 2.09)" fill="#fff"/>
        </g>
        <g id="Grupo_94-4" data-name="Grupo 94" transform="translate(0 469.965)">
          <path id="Caminho_31-4" data-name="Caminho 31" d="M0,3.2c0,2.92,2.1,5.288,4.686,5.288S9.372,6.118,9.372,3.2,7.274-2.09,4.686-2.09,0,.278,0,3.2" transform="translate(0 2.09)" fill="#fff"/>
        </g>
        <g id="Grupo_95-4" data-name="Grupo 95" transform="translate(0 277.707)">
          <path id="Caminho_32-4" data-name="Caminho 32" d="M0,3.2c0,2.92,2.1,5.288,4.686,5.288S9.372,6.118,9.372,3.2,7.274-2.09,4.686-2.09,0,.278,0,3.2" transform="translate(0 2.09)" fill="#fff"/>
        </g>
        <g id="Grupo_96-4" data-name="Grupo 96" transform="translate(0 170.897)">
          <path id="Caminho_33-4" data-name="Caminho 33" d="M0,3.2c0,2.92,2.1,5.288,4.686,5.288S9.372,6.118,9.372,3.2,7.274-2.09,4.686-2.09,0,.278,0,3.2" transform="translate(0 2.09)" fill="#fff"/>
        </g>
        <g id="Grupo_97-4" data-name="Grupo 97" transform="translate(0 64.088)">
          <path id="Caminho_34-4" data-name="Caminho 34" d="M0,3.2c0,2.92,2.1,5.288,4.686,5.288S9.372,6.118,9.372,3.2,7.274-2.09,4.686-2.09,0,.278,0,3.2" transform="translate(0 2.09)" fill="#fff"/>
        </g>
      </g>
    </g>
    <g id="Grupo_103" data-name="Grupo 103" transform="translate(1537.129 2700.204)">
      <g id="Grupo_98-5" data-name="Grupo 98" transform="translate(0 -198.369)" clip-path="url(#clip-path)">
        <g id="Grupo_74-5" data-name="Grupo 74" transform="translate(0 341.793)">
          <path id="Caminho_11-5" data-name="Caminho 11" d="M0,3.2c0,2.92,2.1,5.288,4.686,5.288S9.372,6.118,9.372,3.2,7.274-2.09,4.686-2.09,0,.278,0,3.2" transform="translate(0 2.09)" fill="#fff"/>
        </g>
        <g id="Grupo_75-5" data-name="Grupo 75" transform="translate(0 427.241)">
          <path id="Caminho_12-5" data-name="Caminho 12" d="M0,3.2c0,2.92,2.1,5.288,4.686,5.288S9.372,6.118,9.372,3.2,7.274-2.09,4.686-2.09,0,.278,0,3.2" transform="translate(0 2.09)" fill="#fff"/>
        </g>
        <g id="Grupo_76-5" data-name="Grupo 76" transform="translate(0 234.983)">
          <path id="Caminho_13-5" data-name="Caminho 13" d="M0,3.2c0,2.92,2.1,5.288,4.686,5.288S9.372,6.118,9.372,3.2,7.274-2.09,4.686-2.09,0,.278,0,3.2" transform="translate(0 2.09)" fill="#fff"/>
        </g>
        <g id="Grupo_77-5" data-name="Grupo 77" transform="translate(0 128.173)">
          <path id="Caminho_14-5" data-name="Caminho 14" d="M0,3.2c0,2.92,2.1,5.288,4.686,5.288S9.372,6.118,9.372,3.2,7.274-2.09,4.686-2.09,0,.278,0,3.2" transform="translate(0 2.09)" fill="#fff"/>
        </g>
        <g id="Grupo_78-5" data-name="Grupo 78" transform="translate(0 21.364)">
          <path id="Caminho_15-5" data-name="Caminho 15" d="M0,3.2c0,2.92,2.1,5.288,4.686,5.288S9.372,6.118,9.372,3.2,7.274-2.09,4.686-2.09,0,.278,0,3.2" transform="translate(0 2.09)" fill="#fff"/>
        </g>
        <g id="Grupo_79-5" data-name="Grupo 79" transform="translate(0 320.431)">
          <path id="Caminho_16-5" data-name="Caminho 16" d="M0,3.2c0,2.92,2.1,5.288,4.686,5.288S9.372,6.118,9.372,3.2,7.274-2.09,4.686-2.09,0,.278,0,3.2" transform="translate(0 2.09)" fill="#fff"/>
        </g>
        <g id="Grupo_80-5" data-name="Grupo 80" transform="translate(0 213.621)">
          <path id="Caminho_17-5" data-name="Caminho 17" d="M0,3.2c0,2.92,2.1,5.288,4.686,5.288S9.372,6.118,9.372,3.2,7.274-2.09,4.686-2.09,0,.278,0,3.2" transform="translate(0 2.09)" fill="#fff"/>
        </g>
        <g id="Grupo_81-5" data-name="Grupo 81" transform="translate(0 106.811)">
          <path id="Caminho_18-5" data-name="Caminho 18" d="M0,3.2c0,2.92,2.1,5.288,4.686,5.288S9.372,6.118,9.372,3.2,7.274-2.09,4.686-2.09,0,.278,0,3.2" transform="translate(0 2.09)" fill="#fff"/>
        </g>
        <g id="Grupo_82-5" data-name="Grupo 82" transform="translate(0 0.002)">
          <path id="Caminho_19-5" data-name="Caminho 19" d="M0,3.2c0,2.92,2.1,5.288,4.686,5.288S9.372,6.118,9.372,3.2,7.274-2.09,4.686-2.09,0,.278,0,3.2" transform="translate(0 2.09)" fill="#fff"/>
        </g>
        <g id="Grupo_83-5" data-name="Grupo 83" transform="translate(0 363.155)">
          <path id="Caminho_20-5" data-name="Caminho 20" d="M0,3.2c0,2.92,2.1,5.288,4.686,5.288S9.372,6.118,9.372,3.2,7.274-2.09,4.686-2.09,0,.278,0,3.2" transform="translate(0 2.09)" fill="#fff"/>
        </g>
        <g id="Grupo_84-5" data-name="Grupo 84" transform="translate(0 448.603)">
          <path id="Caminho_21-5" data-name="Caminho 21" d="M0,3.2c0,2.92,2.1,5.288,4.686,5.288S9.372,6.118,9.372,3.2,7.274-2.09,4.686-2.09,0,.278,0,3.2" transform="translate(0 2.09)" fill="#fff"/>
        </g>
        <g id="Grupo_85-5" data-name="Grupo 85" transform="translate(0 256.345)">
          <path id="Caminho_22-5" data-name="Caminho 22" d="M0,3.2c0,2.92,2.1,5.288,4.686,5.288S9.372,6.118,9.372,3.2,7.274-2.09,4.686-2.09,0,.278,0,3.2" transform="translate(0 2.09)" fill="#fff"/>
        </g>
        <g id="Grupo_86-5" data-name="Grupo 86" transform="translate(0 149.535)">
          <path id="Caminho_23-5" data-name="Caminho 23" d="M0,3.2c0,2.92,2.1,5.288,4.686,5.288S9.372,6.118,9.372,3.2,7.274-2.09,4.686-2.09,0,.278,0,3.2" transform="translate(0 2.09)" fill="#fff"/>
        </g>
        <g id="Grupo_87-5" data-name="Grupo 87" transform="translate(0 42.725)">
          <path id="Caminho_24-5" data-name="Caminho 24" d="M0,3.2c0,2.92,2.1,5.288,4.686,5.288S9.372,6.118,9.372,3.2,7.274-2.09,4.686-2.09,0,.278,0,3.2" transform="translate(0 2.09)" fill="#fff"/>
        </g>
        <g id="Grupo_88-5" data-name="Grupo 88" transform="translate(0 405.879)">
          <path id="Caminho_25-5" data-name="Caminho 25" d="M0,3.2c0,2.92,2.1,5.288,4.686,5.288S9.372,6.118,9.372,3.2,7.274-2.09,4.686-2.09,0,.278,0,3.2" transform="translate(0 2.09)" fill="#fff"/>
        </g>
        <g id="Grupo_89-5" data-name="Grupo 89" transform="translate(0 491.327)">
          <path id="Caminho_26-5" data-name="Caminho 26" d="M0,3.2c0,2.92,2.1,5.288,4.686,5.288S9.372,6.118,9.372,3.2,7.274-2.09,4.686-2.09,0,.278,0,3.2" transform="translate(0 2.09)" fill="#fff"/>
        </g>
        <g id="Grupo_90-5" data-name="Grupo 90" transform="translate(0 299.069)">
          <path id="Caminho_27-5" data-name="Caminho 27" d="M0,3.2c0,2.92,2.1,5.288,4.686,5.288S9.372,6.118,9.372,3.2,7.274-2.09,4.686-2.09,0,.278,0,3.2" transform="translate(0 2.09)" fill="#fff"/>
        </g>
        <g id="Grupo_91-5" data-name="Grupo 91" transform="translate(0 192.259)">
          <path id="Caminho_28-5" data-name="Caminho 28" d="M0,3.2c0,2.92,2.1,5.288,4.686,5.288S9.372,6.118,9.372,3.2,7.274-2.09,4.686-2.09,0,.278,0,3.2" transform="translate(0 2.09)" fill="#fff"/>
        </g>
        <g id="Grupo_92-5" data-name="Grupo 92" transform="translate(0 85.449)">
          <path id="Caminho_29-5" data-name="Caminho 29" d="M0,3.2c0,2.92,2.1,5.288,4.686,5.288S9.372,6.118,9.372,3.2,7.274-2.09,4.686-2.09,0,.278,0,3.2" transform="translate(0 2.09)" fill="#fff"/>
        </g>
        <g id="Grupo_93-5" data-name="Grupo 93" transform="translate(0 384.517)">
          <path id="Caminho_30-5" data-name="Caminho 30" d="M0,3.2c0,2.92,2.1,5.288,4.686,5.288S9.372,6.118,9.372,3.2,7.274-2.09,4.686-2.09,0,.278,0,3.2" transform="translate(0 2.09)" fill="#fff"/>
        </g>
        <g id="Grupo_94-5" data-name="Grupo 94" transform="translate(0 469.965)">
          <path id="Caminho_31-5" data-name="Caminho 31" d="M0,3.2c0,2.92,2.1,5.288,4.686,5.288S9.372,6.118,9.372,3.2,7.274-2.09,4.686-2.09,0,.278,0,3.2" transform="translate(0 2.09)" fill="#fff"/>
        </g>
        <g id="Grupo_95-5" data-name="Grupo 95" transform="translate(0 277.707)">
          <path id="Caminho_32-5" data-name="Caminho 32" d="M0,3.2c0,2.92,2.1,5.288,4.686,5.288S9.372,6.118,9.372,3.2,7.274-2.09,4.686-2.09,0,.278,0,3.2" transform="translate(0 2.09)" fill="#fff"/>
        </g>
        <g id="Grupo_96-5" data-name="Grupo 96" transform="translate(0 170.897)">
          <path id="Caminho_33-5" data-name="Caminho 33" d="M0,3.2c0,2.92,2.1,5.288,4.686,5.288S9.372,6.118,9.372,3.2,7.274-2.09,4.686-2.09,0,.278,0,3.2" transform="translate(0 2.09)" fill="#fff"/>
        </g>
        <g id="Grupo_97-5" data-name="Grupo 97" transform="translate(0 64.088)">
          <path id="Caminho_34-5" data-name="Caminho 34" d="M0,3.2c0,2.92,2.1,5.288,4.686,5.288S9.372,6.118,9.372,3.2,7.274-2.09,4.686-2.09,0,.278,0,3.2" transform="translate(0 2.09)" fill="#fff"/>
        </g>
      </g>
    </g>
  </g>
</svg>
