<?xml version="1.0" encoding="utf-8"?>
<!-- Generator: Adobe Illustrator 25.2.1, SVG Export Plug-In . SVG Version: 6.00 Build 0)  -->
<svg version="1.1" id="Grupo_23" xmlns="http://www.w3.org/2000/svg" xmlns:xlink="http://www.w3.org/1999/xlink" x="0px" y="0px"
	 viewBox="0 0 596.1 406" style="enable-background:new 0 0 596.1 406;" xml:space="preserve">
<style type="text/css">
	.st0{clip-path:url(#SVGID_2_);}
	.st1{fill-rule:evenodd;clip-rule:evenodd;fill:url(#Caminho_9_1_);}
	.st2{clip-path:url(#SVGID_4_);}
	.st3{fill-rule:evenodd;clip-rule:evenodd;fill:#FFFFFF;}
	.st4{clip-path:url(#SVGID_6_);}
</style>
<g>
	<defs>
		<rect id="SVGID_1_" x="24.7" y="4" width="520" height="384.5"/>
	</defs>
	<clipPath id="SVGID_2_">
		<use xlink:href="#SVGID_1_"  style="overflow:visible;"/>
	</clipPath>
	<g id="Grupo_20" class="st0">
		
			<radialGradient id="Caminho_9_1_" cx="-25.344" cy="631.1485" r="0.5" gradientTransform="matrix(519.9985 0 0 -384.4699 13463.5049 242853.875)" gradientUnits="userSpaceOnUse">
			<stop  offset="0" style="stop-color:#448434"/>
			<stop  offset="1" style="stop-color:#316831"/>
		</radialGradient>
		<path id="Caminho_9" class="st1" d="M24.9,200.4l0.1,0.1c0-0.1,0-0.1,0-0.2L24.9,200.4c3.8-67.7,55.5-126.6,126.3-161.8
			C224,2.6,316.8-8.5,400.7,20.7c-0.5-0.2-0.9-0.3-1.3-0.4c1.6,0.5,3.1,1,4.7,1.6c-0.1,0-0.2-0.1-0.2-0.1
			c81.4,29.1,128.7,87.7,138.8,151c7.7,48.2-6.2,99.1-43.2,141c-8.3,10.1-17.9,19.1-28.4,26.7c-3.8,3-7.7,5.9-11.8,8.7
			c-9.7,6.6-19.7,12.6-30.1,17.9c-47.4,24-103.7,25.1-163.2,16c-24.3-3.7-49.6-8.1-74.2-15.1c-33.8-9.6-56.4-25.2-75.8-36.4
			c-48-27.7-83.5-60.3-89.7-102.7C24.8,219.6,24.3,210,24.9,200.4"/>
	</g>
</g>
<g id="Grupo_29" transform="translate(-16.468 -227.766)">
	<g id="Grupo_26" transform="translate(16.468 227.766)">
		<g>
			<defs>
				<rect id="SVGID_3_" x="5.1" y="22.9" width="487.3" height="375.7"/>
			</defs>
			<clipPath id="SVGID_4_">
				<use xlink:href="#SVGID_3_"  style="overflow:visible;"/>
			</clipPath>
			<g id="Grupo_18" class="st2">
				<path id="Caminho_7" class="st3" d="M483.8,339.2c2.2-4.6,4.1-9.4,5.6-14.4c1.1-3.7,1.9-7.5,2.4-11.3c1.2-8.5,0.5-17.2-2.1-25.5
					c-0.1,0-0.2-0.1-0.4-0.1c-81.6-1.6-185.3,60.6-278.7,79.6c-40.8,8.3-79.5,7.3-111.9-14.5C37.9,311.9,13,241.2,20.8,175.9
					C29,107.9,72.5,45.8,148,26.7c1.1-0.2,1.7-1.3,1.5-2.4c-0.2-1.1-1.3-1.7-2.4-1.5C67.2,39.6,19.5,103.3,7.9,174.1
					C-3.9,245.2,21,323.3,85.6,371.2c36.8,27.4,81.6,31.3,129.9,24.3c28.4-4.1,58-12.4,87.9-21.1C367.2,356,431.7,333.3,483.8,339.2
					z"/>
			</g>
		</g>
	</g>
	<g id="Grupo_28" transform="translate(616 553.493)">
		<g>
			<defs>
				<rect id="SVGID_5_" x="-101.3" y="-38" width="92.8" height="53.5"/>
			</defs>
			<clipPath id="SVGID_6_">
				<use xlink:href="#SVGID_5_"  style="overflow:visible;"/>
			</clipPath>
			<g id="Grupo_27" transform="translate(0 0)" class="st4">
				<path id="Caminho_10" class="st3" d="M-95.2-8.6C-91.8-8.5-88.4-8.3-85-8c0.4,3.1,2.6,5.6,5.6,6.4c3.5,0.8,6.9-1.3,8.2-4.9
					c6.6,0.9,13.1,2.1,19.4,3.5c14.6,3.5,28.9,7.9,42.9,13.3c-1.2,4-5.5,6.2-9.5,5c-1.8-0.5-3.2-1.7-4.2-3.2l-0.3,0l0-0.4
					c-26.9-4.8-51.2-6-78.4,0.9c1.7-4.1,3-8.2,4.2-12.5C-96.3-2.8-95.7-5.7-95.2-8.6z M-95.2-38c21.4,7.5,68.9,31.6,76.3,37.2
					c0.3,0.2,0.5,0.5,0.8,0.8c1.4-0.4,3-0.4,4.4,0.1c3.4,1.2,5.6,4.5,5.3,8.1C-25,1.1-41.8-5.3-59.8-9.5c-3.7-0.9-7.5-1.7-11.3-2.3
					c-0.7-2.6-2.7-4.6-5.3-5.3c-3.1-0.6-6.2,0.9-7.6,3.6c-3.4-0.3-6.9-0.5-10.4-0.6C-93.5-22-93.8-30.1-95.2-38z"/>
			</g>
		</g>
	</g>
</g>
</svg>
