<svg xmlns="http://www.w3.org/2000/svg" xmlns:xlink="http://www.w3.org/1999/xlink" width="712.339" height="461.935" viewBox="0 0 712.339 461.935">
  <defs>
    <clipPath id="clip-path">
      <rect id="Ret창ngulo_9" data-name="Ret창ngulo 9" width="592.374" height="461.935" fill="#fff"/>
    </clipPath>
    <clipPath id="clip-path-2">
      <rect id="Ret창ngulo_15" data-name="Ret창ngulo 15" width="112.807" height="65.836" fill="#fff"/>
    </clipPath>
  </defs>
  <g id="Grupo_29" data-name="Grupo 29" transform="translate(-16.468 -227.766)">
    <g id="Grupo_26" data-name="Grupo 26" transform="translate(16.468 227.766)">
      <g id="Grupo_18" data-name="Grupo 18" clip-path="url(#clip-path)">
        <path id="Caminho_7" data-name="Caminho 7" d="M581.9,389.037a130.974,130.974,0,0,0,6.8-17.656,100.048,100.048,0,0,0,2.948-13.934,71.852,71.852,0,0,0-2.511-31.313,1.431,1.431,0,0,0-.438-.1c-99.133-1.922-225.273,74.559-338.771,97.934-49.625,10.221-96.586,9.021-136.066-17.881C39.879,355.458,9.625,268.463,19.173,188.166c9.941-83.6,62.8-159.929,154.566-183.406a2.412,2.412,0,1,0-1.1-4.7C75.506,20.566,17.595,98.852,3.4,185.944c-14.238,87.394,15.987,183.475,94.488,242.41,44.675,33.68,99.21,38.437,157.923,29.844,34.568-5.058,70.47-15.279,106.8-25.886C440.192,409.662,518.664,381.745,581.9,389.037Z" transform="translate(0 -0.001)" fill="#fff" fill-rule="evenodd"/>
      </g>
    </g>
    <g id="Grupo_28" data-name="Grupo 28" transform="translate(616 553.493)">
      <g id="Grupo_27" data-name="Grupo 27" transform="translate(0 0)" clip-path="url(#clip-path-2)">
        <path id="Caminho_10" data-name="Caminho 10" d="M7.372,36.066c4.176.128,8.3.4,12.373.748a9.213,9.213,0,0,0,6.777,7.847c4.224.973,8.407-1.64,9.962-5.974,8.032,1.115,15.9,2.541,23.626,4.329a405.3,405.3,0,0,1,52.153,16.314,9.233,9.233,0,0,1-16.669,2.143l-.31-.048.045-.448C62.61,55.058,33.04,53.6,0,62.04A130.72,130.72,0,0,0,5.079,46.694C5.989,43.225,6.762,39.68,7.372,36.066ZM7.379,0c25.986,9.212,83.753,38.8,92.695,45.761.313.305.625.618.938.928a9,9,0,0,1,5.366.145,9.713,9.713,0,0,1,6.407,9.91C92.73,48.034,72.252,40.207,50.46,35.056c-4.526-1.07-9.1-2.045-13.741-2.863a9.016,9.016,0,0,0-6.494-6.527,8.513,8.513,0,0,0-9.27,4.441c-4.166-.363-8.382-.59-12.658-.718A103.227,103.227,0,0,0,7.379,0Z" transform="translate(0 0.001)" fill="#fff" fill-rule="evenodd"/>
      </g>
    </g>
  </g>
</svg>
