<?xml version="1.0" encoding="utf-8"?>
<!-- Generator: Adobe Illustrator 25.2.1, SVG Export Plug-In . SVG Version: 6.00 Build 0)  -->
<svg version="1.1" id="Grupo_30" xmlns="http://www.w3.org/2000/svg" xmlns:xlink="http://www.w3.org/1999/xlink" x="0px" y="0px"
	 viewBox="0 0 1181.6 1212.1" style="enable-background:new 0 0 1181.6 1212.1;" xml:space="preserve">
<style type="text/css">
	.st0{clip-path:url(#SVGID_2_);}
	.st1{fill-rule:evenodd;clip-rule:evenodd;fill:url(#Caminho_9_1_);}
	.st2{clip-path:url(#SVGID_4_);}
	.st3{fill-rule:evenodd;clip-rule:evenodd;fill:#FFFFFF;}
	.st4{clip-path:url(#SVGID_6_);}
</style>
<g>
	<g>
		<defs>
			<rect id="SVGID_1_" x="-488" y="7.1" width="1668" height="1198"/>
		</defs>
		<clipPath id="SVGID_2_">
			<use xlink:href="#SVGID_1_"  style="overflow:visible;"/>
		</clipPath>
		<g id="Grupo_20" class="st0">
			
				<radialGradient id="Caminho_9_1_" cx="834.7117" cy="0.189" r="0.5" gradientTransform="matrix(1667.7174 0 0 1198.2762 -1391717.625 379.666)" gradientUnits="userSpaceOnUse">
				<stop  offset="0" style="stop-color:#448434"/>
				<stop  offset="1" style="stop-color:#316831"/>
			</radialGradient>
			<path id="Caminho_9" class="st1" d="M-487.5,619.1l0.5,0.5c0-0.2,0-0.4,0-0.7L-487.5,619.1c12.2-210.9,177.9-394.7,405.1-504.2
				C151,2.4,448.7-32.1,717.8,59.1c-1.5-0.5-2.9-0.9-4.2-1.2c5.1,1.5,10.1,3.2,15,5c-0.2-0.1-0.5-0.3-0.7-0.3
				C989,153.2,1140.5,335.9,1173,533.3c24.7,150.2-20,308.9-138.7,439.5c-25.5,30.5-56.1,58.4-91,83.3c-12.2,9.3-24.8,18.4-38,27.2
				c-30.9,20.7-63.2,39.3-96.7,55.8c-151.9,74.8-332.6,78.1-523.5,49.7c-78.1-11.6-159.1-25.1-238-47c-108.5-30-181-78.5-243-113.4
				c-153.9-86.5-267.7-187.9-287.6-320C-487.9,678.8-489.2,648.9-487.5,619.1"/>
		</g>
	</g>
</g>
<g id="Grupo_29" transform="translate(-16.468 -227.766)">
	<g id="Grupo_26" transform="translate(16.468 227.766)">
		<g>
			<g>
				<defs>
					<rect id="SVGID_3_" x="-373.6" y="-84.9" width="457.9" height="357.5"/>
				</defs>
				<clipPath id="SVGID_4_">
					<use xlink:href="#SVGID_3_"  style="overflow:visible;"/>
				</clipPath>
				<g id="Grupo_18" class="st2">
					<path id="Caminho_7" class="st3" d="M76.1,216.1c2.1-4.4,3.8-9,5.2-13.7c1-3.5,1.8-7.1,2.3-10.8c1.1-8.1,0.5-16.4-2-24.2
						c-0.1,0-0.2-0.1-0.3-0.1c-76.6-1.5-174.2,57.7-261.8,75.8c-38.4,7.9-74.6,7-105.2-13.8c-57.2-39.2-80.6-106.5-73.2-168.6
						c7.7-64.7,48.6-123.8,119.5-141.9c1-0.2,1.6-1.2,1.4-2.3c-0.2-1-1.2-1.6-2.2-1.4C-315.3-69-360.1-8.5-371,58.9
						c-11,67.6,12.3,142,73,187.6c34.6,26.1,76.7,29.8,122.1,23.1c26.7-3.9,54.5-11.8,82.5-20C-33.4,232,27.3,210.4,76.1,216.1z"/>
				</g>
			</g>
		</g>
	</g>
	<g id="Grupo_28" transform="translate(616 553.493)">
		<g>
			<g>
				<defs>
					<rect id="SVGID_5_" x="-509.8" y="-158.6" width="87.2" height="51"/>
				</defs>
				<clipPath id="SVGID_6_">
					<use xlink:href="#SVGID_5_"  style="overflow:visible;"/>
				</clipPath>
				<g id="Grupo_27" transform="translate(0 0)" class="st4">
					<path id="Caminho_10" class="st3" d="M-504-130.7c3.2,0.1,6.4,0.3,9.6,0.6c0.3,2.9,2.4,5.3,5.2,6.1c3.3,0.8,6.5-1.3,7.7-4.6
						c6.2,0.9,12.3,2,18.3,3.3c13.7,3.3,27.2,7.5,40.3,12.6c-1.1,3.8-5.1,5.9-8.9,4.7c-1.7-0.5-3.1-1.6-4-3.1l-0.2,0l0-0.4
						c-25.3-4.6-48.1-5.7-73.7,0.8c1.6-3.9,2.9-7.8,3.9-11.9C-505.1-125.2-504.5-127.9-504-130.7z M-504-158.6
						c20.1,7.2,64.7,30,71.6,35.4c0.2,0.2,0.5,0.5,0.7,0.7c1.4-0.4,2.8-0.4,4.1,0.1c3.2,1.1,5.2,4.3,5,7.7
						c-15.5-6.7-31.3-12.8-48.2-16.8c-3.5-0.8-7.1-1.6-10.6-2.2c-0.6-2.5-2.5-4.4-5-5.1c-2.9-0.6-5.8,0.8-7.1,3.4
						c-3.2-0.3-6.5-0.5-9.8-0.5C-502.5-143.5-502.7-151.1-504-158.6z"/>
				</g>
			</g>
		</g>
	</g>
</g>
</svg>
