<?xml version="1.0" encoding="utf-8"?>
<!-- Generator: Adobe Illustrator 25.2.1, SVG Export Plug-In . SVG Version: 6.00 Build 0)  -->
<svg version="1.1" id="Grupo_30" xmlns="http://www.w3.org/2000/svg" xmlns:xlink="http://www.w3.org/1999/xlink" x="0px" y="0px"
	 viewBox="0 0 1181.6 1212.1" style="enable-background:new 0 0 1181.6 1212.1;" xml:space="preserve">
<style type="text/css">
	.st0{clip-path:url(#SVGID_2_);}
	.st1{fill-rule:evenodd;clip-rule:evenodd;fill:url(#Caminho_9_1_);}
	.st2{clip-path:url(#SVGID_4_);}
	.st3{fill-rule:evenodd;clip-rule:evenodd;fill:#FFFFFF;}
	.st4{clip-path:url(#SVGID_6_);}
</style>
<g>
	<g>
		<g>
			<defs>
				<rect id="SVGID_1_" x="-488" y="7.1" width="1668" height="1198"/>
			</defs>
			<clipPath id="SVGID_2_">
				<use xlink:href="#SVGID_1_"  style="overflow:visible;"/>
			</clipPath>
			<g id="Grupo_20" class="st0">
				
					<radialGradient id="Caminho_9_1_" cx="925.6572" cy="1105.8995" r="0.5" gradientTransform="matrix(1667.7174 0 0 -1198.2762 -1543388.875 1325779.25)" gradientUnits="userSpaceOnUse">
					<stop  offset="0" style="stop-color:#448434"/>
					<stop  offset="1" style="stop-color:#316831"/>
				</radialGradient>
				<path id="Caminho_9" class="st1" d="M-487.5,619.1l0.5,0.5c0-0.2,0-0.4,0-0.7L-487.5,619.1c12.2-210.9,177.9-394.7,405.1-504.2
					C151,2.4,448.7-32.1,717.8,59.1c-1.5-0.5-2.9-0.9-4.2-1.2c5.1,1.5,10.1,3.2,15,5c-0.2-0.1-0.5-0.3-0.7-0.3
					C989,153.2,1140.5,335.9,1173,533.3c24.7,150.2-20,308.9-138.7,439.5c-25.5,30.5-56.1,58.4-91,83.3c-12.2,9.3-24.8,18.4-38,27.2
					c-30.9,20.7-63.2,39.3-96.7,55.8c-151.9,74.8-332.6,78.1-523.5,49.7c-78.1-11.6-159.1-25.1-238-47c-108.5-30-181-78.5-243-113.4
					c-153.9-86.5-267.7-187.9-287.6-320C-487.9,678.8-489.2,648.9-487.5,619.1"/>
			</g>
		</g>
	</g>
</g>
<g id="Grupo_29" transform="translate(-16.468 -227.766)">
	<g id="Grupo_26" transform="translate(16.468 227.766)">
		<g>
			<g>
				<g>
					<defs>
						<rect id="SVGID_3_" x="-427.8" y="-103.2" width="563.9" height="440.2"/>
					</defs>
					<clipPath id="SVGID_4_">
						<use xlink:href="#SVGID_3_"  style="overflow:visible;"/>
					</clipPath>
					<g id="Grupo_18" class="st2">
						<path id="Caminho_7" class="st3" d="M126,267.4c2.6-5.4,4.7-11.1,6.4-16.9c1.2-4.3,2.2-8.7,2.8-13.3c1.4-10,0.6-20.2-2.5-29.8
							c-0.1,0-0.2-0.1-0.4-0.1c-94.3-1.8-214.5,71.1-322.4,93.3c-47.3,9.7-91.9,8.6-129.5-17c-70.4-48.3-99.3-131.1-90.1-207.6
							c9.5-79.7,59.8-152.4,147.2-174.7c1.2-0.2,2-1.5,1.7-2.8c-0.2-1.2-1.5-2-2.7-1.7C-356-83.6-411.1-9.1-424.6,73.9
							c-13.5,83.2,15.1,174.9,89.9,231c42.6,32.1,94.4,36.7,150.4,28.4c32.9-4.8,67.1-14.5,101.6-24.6
							C-8.8,287,65.9,260.4,126,267.4z"/>
					</g>
				</g>
			</g>
		</g>
	</g>
	<g id="Grupo_28" transform="translate(616 553.493)">
		<g>
			<g>
				<g>
					<defs>
						<rect id="SVGID_5_" x="-456.8" y="-118.6" width="107.4" height="62.8"/>
					</defs>
					<clipPath id="SVGID_6_">
						<use xlink:href="#SVGID_5_"  style="overflow:visible;"/>
					</clipPath>
					<g id="Grupo_27" transform="translate(0 0)" class="st4">
						<path id="Caminho_10" class="st3" d="M-449.6-84.2c3.9,0.1,7.9,0.4,11.8,0.7c0.4,3.6,3,6.5,6.4,7.5c4.1,1,8-1.6,9.5-5.7
							c7.6,1.1,15.1,2.5,22.5,4.1c16.9,4.1,33.5,9.2,49.6,15.5c-1.4,4.7-6.3,7.3-11,5.8c-2.1-0.6-3.8-2-4.9-3.8h-0.2v-0.5
							c-31.2-5.7-59.2-7-90.8,1c2-4.8,3.6-9.6,4.8-14.7C-451-77.5-450.2-80.8-449.6-84.2z M-449.6-118.6
							c24.8,8.9,79.7,36.9,88.2,43.6c0.2,0.2,0.6,0.6,0.9,0.9c1.7-0.5,3.4-0.5,5,0.1c3.9,1.4,6.4,5.3,6.2,9.5
							c-19.1-8.3-38.5-15.8-59.4-20.7c-4.3-1-8.7-2-13.1-2.7c-0.7-3.1-3.1-5.4-6.2-6.3c-3.6-0.7-7.1,1-8.7,4.2
							c-3.9-0.4-8-0.6-12.1-0.6C-447.8-100-448-109.4-449.6-118.6z"/>
					</g>
				</g>
			</g>
		</g>
	</g>
</g>
</svg>
