<?xml version="1.0" encoding="utf-8"?>
<!-- Generator: Adobe Illustrator 25.2.1, SVG Export Plug-In . SVG Version: 6.00 Build 0)  -->
<svg version="1.1" id="Grupo_30" xmlns="http://www.w3.org/2000/svg" xmlns:xlink="http://www.w3.org/1999/xlink" x="0px" y="0px"
	 viewBox="0 0 1181.6 1212.1" style="enable-background:new 0 0 1181.6 1212.1;" xml:space="preserve">
<style type="text/css">
	.st0{clip-path:url(#SVGID_2_);}
	.st1{fill-rule:evenodd;clip-rule:evenodd;fill:url(#Caminho_9_1_);}
	.st2{clip-path:url(#SVGID_4_);}
	.st3{fill-rule:evenodd;clip-rule:evenodd;fill:#FFFFFF;}
	.st4{clip-path:url(#SVGID_6_);}
</style>
<g>
	<g>
		<g>
			<g>
				<defs>
					<rect id="SVGID_1_" x="-488" y="7.1" width="1668" height="1198"/>
				</defs>
				<clipPath id="SVGID_2_">
					<use xlink:href="#SVGID_1_"  style="overflow:visible;"/>
				</clipPath>
				<g id="Grupo_20" class="st0">
					
						<radialGradient id="Caminho_9_1_" cx="1016.6026" cy="1.200448e-02" r="0.5" gradientTransform="matrix(1667.7174 0 0 1198.2762 -1695060.125 591.7229)" gradientUnits="userSpaceOnUse">
						<stop  offset="0" style="stop-color:#448434"/>
						<stop  offset="1" style="stop-color:#316831"/>
					</radialGradient>
					<path id="Caminho_9" class="st1" d="M-487.5,619.1l0.5,0.5c0-0.2,0-0.4,0-0.7L-487.5,619.1c12.2-210.9,177.9-394.7,405.1-504.2
						C151,2.4,448.7-32.1,717.8,59.1c-1.5-0.5-2.9-0.9-4.2-1.2c5.1,1.5,10.1,3.2,15,5c-0.2-0.1-0.5-0.3-0.7-0.3
						C989,153.2,1140.5,335.9,1173,533.3c24.7,150.2-20,308.9-138.7,439.5c-25.5,30.5-56.1,58.4-91,83.3
						c-12.2,9.3-24.8,18.4-38,27.2c-30.9,20.7-63.2,39.3-96.7,55.8c-151.9,74.8-332.6,78.1-523.5,49.7c-78.1-11.6-159.1-25.1-238-47
						c-108.5-30-181-78.5-243-113.4c-153.9-86.5-267.7-187.9-287.6-320C-487.9,678.8-489.2,648.9-487.5,619.1"/>
				</g>
			</g>
		</g>
	</g>
</g>
<g id="Grupo_29" transform="translate(-16.468 -227.766)">
	<g id="Grupo_26" transform="translate(16.468 227.766)">
		<g>
			<g>
				<g>
					<g>
						<defs>
							<rect id="SVGID_3_" x="-279.5" y="14.4" width="355.2" height="278.8"/>
						</defs>
						<clipPath id="SVGID_4_">
							<use xlink:href="#SVGID_3_"  style="overflow:visible;"/>
						</clipPath>
						<g id="Grupo_18" class="st2">
							<path id="Caminho_7" class="st3" d="M69.3,249.1c1.6-3.4,3-7,4-10.7c0.8-2.7,1.4-5.5,1.8-8.4c0.9-6.3,0.4-12.8-1.6-18.9
								c-0.1,0-0.1-0.1-0.3-0.1c-59.4-1.1-135.1,45-203.1,59.1c-29.8,6.1-57.9,5.4-81.6-10.8c-44.3-30.6-62.5-83-56.7-131.5
								c6-50.5,37.7-96.5,92.7-110.6c0.8-0.1,1.3-0.9,1.1-1.8c-0.1-0.8-0.9-1.3-1.7-1.1c-58.3,12.4-93,59.6-101.5,112.1
								c-8.5,52.7,9.5,110.8,56.6,146.3c26.8,20.3,59.5,23.2,94.7,18c20.7-3,42.3-9.2,64-15.6C-15.6,261.5,31.4,244.7,69.3,249.1z"
								/>
						</g>
					</g>
				</g>
			</g>
		</g>
	</g>
	<g id="Grupo_28" transform="translate(616 553.493)">
		<g>
			<g>
				<g>
					<g>
						<defs>
							<rect id="SVGID_5_" x="-519.7" y="-114.8" width="67.6" height="39.8"/>
						</defs>
						<clipPath id="SVGID_6_">
							<use xlink:href="#SVGID_5_"  style="overflow:visible;"/>
						</clipPath>
						<g id="Grupo_27" transform="translate(0 0)" class="st4">
							<path id="Caminho_10" class="st3" d="M-515.2-93c2.5,0.1,5,0.3,7.4,0.4c0.3,2.3,1.9,4.1,4,4.7c2.6,0.6,5-1,6-3.6
								c4.8,0.7,9.5,1.6,14.2,2.6c10.6,2.6,21.1,5.8,31.2,9.8c-0.9,3-4,4.6-6.9,3.7c-1.3-0.4-2.4-1.3-3.1-2.4h-0.1v-0.3
								c-19.7-3.6-37.3-4.4-57.2,0.6c1.3-3,2.3-6.1,3-9.3C-516-88.8-515.5-90.8-515.2-93z M-515.2-114.8
								c15.6,5.6,50.2,23.4,55.6,27.6c0.1,0.1,0.4,0.4,0.6,0.6c1.1-0.3,2.1-0.3,3.1,0.1c2.5,0.9,4,3.4,3.9,6
								c-12-5.3-24.2-10-37.4-13.1c-2.7-0.6-5.5-1.3-8.3-1.7c-0.4-2-2-3.4-3.9-4c-2.3-0.4-4.5,0.6-5.5,2.7c-2.5-0.3-5-0.4-7.6-0.4
								C-514-103-514.2-109-515.2-114.8z"/>
						</g>
					</g>
				</g>
			</g>
		</g>
	</g>
</g>
</svg>
