<?xml version="1.0" encoding="utf-8"?>
<!-- Generator: Adobe Illustrator 25.2.1, SVG Export Plug-In . SVG Version: 6.00 Build 0)  -->
<svg version="1.1" id="Layer_1" xmlns="http://www.w3.org/2000/svg" xmlns:xlink="http://www.w3.org/1999/xlink" x="0px" y="0px"
	 viewBox="0 0 1211 1212.1" style="enable-background:new 0 0 1211 1212.1;" xml:space="preserve">
<style type="text/css">
	.st0{fill:none;}
	.st1{fill:url(#SVGID_1_);}
</style>
<g>
	<path class="st0" d="M1141.4,1147.9c-79.5,22.1-161.2,35.8-239.9,47.5c-192.4,28.7-374.5,25.4-527.6-50.3
		c-33.7-16.6-66.2-35.5-97.4-56.4c-13.2-8.9-26-18.1-38.3-27.5c-35.1-25.2-66-53.4-91.7-84.3C26.8,844.8-18.3,684.3,6.6,532.3
		C39.4,332.7,192.1,147.9,455.3,56.2c-0.3,0.1-0.5,0.2-0.8,0.3c4.9-1.8,9.9-3.5,15.1-5c-1.3,0.3-2.7,0.7-4.2,1.2
		c105.8-36,216-52.6,325-52.8H0v1212.1h1211v-87.6C1189.5,1133,1166.4,1140.9,1141.4,1147.9z"/>
	<path class="st0" d="M791.5,0C938,0,1082.3,29.7,1211,82.1V8.3h470V0H791.5z"/>
	<radialGradient id="SVGID_1_" cx="840.4825" cy="606.031" r="732.694" gradientUnits="userSpaceOnUse">
		<stop  offset="0" style="stop-color:#448434"/>
		<stop  offset="1" style="stop-color:#316831"/>
	</radialGradient>
	<path class="st1" d="M469.6,51.5c-5.1,1.5-10.1,3.2-15.1,5c0.2-0.1,0.5-0.3,0.8-0.3C192.1,147.9,39.4,332.7,6.6,532.3
		c-24.9,152,20.2,312.4,139.8,444.5c25.7,30.8,56.6,59.1,91.7,84.3c12.3,9.4,25,18.6,38.3,27.5c31.2,20.9,63.7,39.8,97.4,56.4
		c153.1,75.6,335.2,79,527.6,50.3c78.7-11.8,160.4-25.4,239.9-47.5c25-6.9,48-14.9,69.5-23.4V82.1C1082.3,29.7,938,0,791.5,0h-1.2
		c-109,0.2-219.2,16.8-325,52.8C466.9,52.3,468.3,51.9,469.6,51.5z"/>
</g>
</svg>
